ply
format ascii 1.0
comment Created by Blender 2.78 (sub 0) - www.blender.org, source file: 'ico.blend'
element vertex 576
property float x
property float y
property float z
element face 1152
property list uchar uint vertex_indices
end_header
1.772980 0.233417 0.000000
1.720303 0.000000 0.091626
1.788279 0.000000 0.000000
1.521464 0.200304 0.158701
1.534593 0.000000 0.158701
1.269948 0.167192 0.183252
1.280906 0.000000 0.183252
1.018432 0.134079 0.158701
1.027220 0.000000 0.158701
0.834310 0.109839 0.091626
0.841509 0.000000 0.091626
0.773534 0.000000 0.000000
0.766917 0.100966 0.000000
0.841509 0.000000 -0.091626
0.834310 0.109839 -0.091626
1.027220 0.000000 -0.158701
1.018432 0.134079 -0.158701
1.280906 0.000000 -0.183252
1.269948 0.167192 -0.183252
1.534593 0.000000 -0.158701
1.521464 0.200304 -0.158701
1.720303 0.000000 -0.091626
1.661686 0.445247 0.091626
1.705586 0.224545 0.091626
1.482303 0.397182 0.158701
0.992219 0.265864 0.158701
0.812836 0.217799 0.091626
0.747177 0.200205 0.000000
0.812836 0.217799 -0.091626
0.992219 0.265864 -0.158701
1.482303 0.397182 -0.158701
1.705586 0.224545 -0.091626
1.661686 0.445247 -0.091626
1.652154 0.684344 0.000000
1.727345 0.462840 0.000000
1.417779 0.587263 0.158701
1.183403 0.490182 0.183252
1.237261 0.331523 0.183252
0.949028 0.393100 0.158701
0.777453 0.322032 0.091626
0.777453 0.322032 -0.091626
0.949028 0.393100 -0.158701
1.183403 0.490182 -0.183252
1.237261 0.331523 -0.183252
1.417779 0.587263 -0.158701
1.589353 0.658332 -0.091626
1.548694 0.894139 0.000000
1.589353 0.658332 0.091626
1.489826 0.860152 0.091626
1.328996 0.767296 0.158701
1.109297 0.640453 0.183252
0.889599 0.513610 0.158701
0.728768 0.420755 0.091626
0.714653 0.296019 0.000000
0.669900 0.386767 0.000000
0.889599 0.513610 -0.158701
1.109297 0.640453 -0.183252
1.328996 0.767296 -0.158701
1.489826 0.860152 -0.091626
1.364809 1.047254 0.091626
1.217474 0.934201 0.158701
1.016212 0.779766 0.183252
0.814949 0.625332 0.158701
0.667614 0.512278 0.091626
0.613686 0.470898 0.000000
0.728768 0.420755 -0.091626
0.667614 0.512278 -0.091626
0.814949 0.625332 -0.158701
1.016212 0.779766 -0.183252
1.217474 0.934201 -0.158701
1.364809 1.047254 -0.091626
1.264504 1.264504 0.000000
1.418737 1.088635 0.000000
1.216438 1.216438 0.091626
1.085121 1.085121 0.158701
0.905738 0.905738 0.183252
0.726354 0.726354 0.158701
0.595037 0.595037 0.091626
0.595037 0.595037 -0.091626
0.726354 0.726354 -0.158701
0.905738 0.905738 -0.183252
1.085121 1.085121 -0.158701
1.216438 1.216438 -0.091626
1.088635 1.418736 0.000000
0.934201 1.217474 0.158701
0.779767 1.016211 0.183252
0.625332 0.814948 0.158701
0.512278 0.667614 0.091626
0.546971 0.546971 0.000000
0.512278 0.667614 -0.091626
0.625332 0.814948 -0.158701
0.779767 1.016211 -0.183252
0.934201 1.217474 -0.158701
0.894139 1.548695 0.000000
1.047255 1.364808 0.091626
0.860152 1.489826 0.091626
0.767296 1.328996 0.158701
0.513610 0.889599 0.158701
0.420755 0.728768 0.091626
0.386767 0.669900 0.000000
0.470898 0.613686 0.000000
0.420755 0.728768 -0.091626
0.513610 0.889599 -0.158701
0.767296 1.328996 -0.158701
0.860152 1.489826 -0.091626
1.047255 1.364808 -0.091626
0.684345 1.652154 0.000000
0.658332 1.589353 0.091626
0.587263 1.417778 0.158701
0.640453 1.109298 0.183252
0.490182 1.183403 0.183252
0.393100 0.949028 0.158701
0.322032 0.777453 0.091626
0.322032 0.777453 -0.091626
0.393100 0.949028 -0.158701
0.490182 1.183403 -0.183252
0.640453 1.109298 -0.183252
0.587263 1.417778 -0.158701
0.658332 1.589353 -0.091626
0.462840 1.727345 0.000000
0.445247 1.661685 0.091626
0.331523 1.237261 0.183252
0.265864 0.992219 0.158701
0.217799 0.812836 0.091626
0.200205 0.747177 0.000000
0.296019 0.714652 0.000000
0.217799 0.812836 -0.091626
0.265864 0.992219 -0.158701
0.331523 1.237261 -0.183252
0.445247 1.661685 -0.091626
0.233417 1.772980 0.000000
0.224544 1.705586 0.091626
0.397182 1.482302 0.158701
0.167192 1.269948 0.183252
0.134079 1.018432 0.158701
0.109839 0.834310 0.091626
0.100966 0.766917 0.000000
0.109839 0.834310 -0.091626
0.134079 1.018432 -0.158701
0.167192 1.269948 -0.183252
0.397182 1.482302 -0.158701
0.224544 1.705586 -0.091626
0.000000 1.720304 0.091626
0.000000 1.534593 0.158701
0.200304 1.521464 0.158701
0.000000 1.280906 0.183252
0.000000 0.841509 0.091626
0.000000 0.773534 0.000000
0.000000 0.841509 -0.091626
0.000000 1.280906 -0.183252
0.200304 1.521464 -0.158701
0.000000 1.534593 -0.158701
0.000000 1.720304 -0.091626
-0.233418 1.772980 0.000000
0.000000 1.788279 0.000000
-0.224545 1.705586 0.091626
-0.200305 1.521464 0.158701
-0.134079 1.018432 0.158701
0.000000 1.027220 0.158701
-0.109839 0.834310 0.091626
-0.109839 0.834310 -0.091626
-0.134079 1.018432 -0.158701
0.000000 1.027220 -0.158701
-0.200305 1.521464 -0.158701
-0.224545 1.705586 -0.091626
-0.445247 1.661686 0.091626
-0.397182 1.482303 0.158701
-0.331523 1.237261 0.183252
-0.167192 1.269948 0.183252
-0.265864 0.992219 0.158701
-0.217799 0.812836 0.091626
-0.100967 0.766917 0.000000
-0.217799 0.812836 -0.091626
-0.265864 0.992219 -0.158701
-0.167192 1.269948 -0.183252
-0.331523 1.237261 -0.183252
-0.397182 1.482303 -0.158701
-0.445247 1.661686 -0.091626
-0.462840 1.727345 0.000000
-0.658332 1.589353 0.091626
-0.587263 1.417779 0.158701
-0.490182 1.183403 0.183252
-0.393100 0.949028 0.158701
-0.322032 0.777453 0.091626
-0.200205 0.747177 0.000000
-0.322032 0.777453 -0.091626
-0.393100 0.949028 -0.158701
-0.490182 1.183403 -0.183252
-0.587263 1.417779 -0.158701
-0.658332 1.589353 -0.091626
-0.894139 1.548695 0.000000
-0.684345 1.652154 0.000000
-0.767296 1.328996 0.158701
-0.513610 0.889599 0.158701
-0.420755 0.728769 0.091626
-0.386767 0.669901 0.000000
-0.296019 0.714653 0.000000
-0.420755 0.728769 -0.091626
-0.513610 0.889599 -0.158701
-0.767296 1.328996 -0.158701
-1.047254 1.364808 0.091626
-0.860152 1.489827 0.091626
-0.779766 1.016211 0.183252
-0.640453 1.109298 0.183252
-0.625332 0.814949 0.158701
-0.512278 0.667614 0.091626
-0.512278 0.667614 -0.091626
-0.625332 0.814949 -0.158701
-0.779766 1.016211 -0.183252
-0.640453 1.109298 -0.183252
-1.047254 1.364808 -0.091626
-0.860152 1.489827 -0.091626
-1.088635 1.418737 0.000000
-1.216439 1.216438 0.091626
-0.934201 1.217474 0.158701
-1.085121 1.085120 0.158701
-0.905738 0.905737 0.183252
-0.726355 0.726354 0.158701
-0.595037 0.595037 0.091626
-0.470898 0.613686 0.000000
-0.595037 0.595037 -0.091626
-0.726355 0.726354 -0.158701
-0.905738 0.905737 -0.183252
-1.085121 1.085120 -0.158701
-0.934201 1.217474 -0.158701
-1.216439 1.216438 -0.091626
-1.264504 1.264503 0.000000
-1.364808 1.047254 0.091626
-1.217474 0.934201 0.158701
-1.016211 0.779766 0.183252
-0.814949 0.625332 0.158701
-0.667614 0.512278 0.091626
-0.546971 0.546971 0.000000
-0.613686 0.470898 0.000000
-0.667614 0.512278 -0.091626
-0.814949 0.625332 -0.158701
-1.016211 0.779766 -0.183252
-1.217474 0.934201 -0.158701
-1.364808 1.047254 -0.091626
-1.548694 0.894140 0.000000
-1.418737 1.088635 0.000000
-1.489826 0.860152 0.091626
-1.109297 0.640454 0.183252
-0.889599 0.513610 0.158701
-0.728768 0.420755 0.091626
-0.669900 0.386767 0.000000
-0.728768 0.420755 -0.091626
-0.889599 0.513610 -0.158701
-1.109297 0.640454 -0.183252
-1.328996 0.767297 -0.158701
-1.652154 0.684345 0.000000
-1.589353 0.658332 0.091626
-1.328996 0.767297 0.158701
-1.417778 0.587263 0.158701
-1.183403 0.490182 0.183252
-0.949028 0.393100 0.158701
-0.777453 0.322032 0.091626
-0.777453 0.322032 -0.091626
-0.949028 0.393100 -0.158701
-1.183403 0.490182 -0.183252
-1.417778 0.587263 -0.158701
-1.489826 0.860152 -0.091626
-1.589353 0.658332 -0.091626
-1.727345 0.462840 0.000000
-1.482303 0.397182 0.158701
-1.237261 0.331523 0.183252
-0.992219 0.265864 0.158701
-0.812836 0.217799 0.091626
-0.747177 0.200205 0.000000
-0.714653 0.296019 0.000000
-0.812836 0.217799 -0.091626
-0.992219 0.265864 -0.158701
-1.237261 0.331523 -0.183252
-1.482303 0.397182 -0.158701
-1.772980 0.233417 0.000000
-1.661686 0.445247 0.091626
-1.705586 0.224545 0.091626
-1.269948 0.167192 0.183252
-1.018432 0.134079 0.158701
-0.834310 0.109839 0.091626
-0.766917 0.100967 0.000000
-0.834310 0.109839 -0.091626
-1.018432 0.134079 -0.158701
-1.269948 0.167192 -0.183252
-1.705586 0.224545 -0.091626
-1.661686 0.445247 -0.091626
-1.720303 0.000000 0.091626
-1.521464 0.200305 0.158701
-1.534593 0.000000 0.158701
-1.280906 0.000000 0.183252
-1.027220 0.000000 0.158701
-0.841509 0.000000 0.091626
-0.841509 0.000000 -0.091626
-1.027220 0.000000 -0.158701
-1.280906 0.000000 -0.183252
-1.534593 0.000000 -0.158701
-1.521464 0.200305 -0.158701
-1.720303 0.000000 -0.091626
-1.772980 -0.233417 0.000000
-1.788279 0.000000 0.000000
-1.521464 -0.200305 0.158701
-1.269948 -0.167192 0.183252
-1.018432 -0.134079 0.158701
-0.834310 -0.109839 0.091626
-0.766917 -0.100967 0.000000
-0.773534 0.000000 0.000000
-0.834310 -0.109839 -0.091626
-1.018432 -0.134079 -0.158701
-1.269948 -0.167192 -0.183252
-1.521464 -0.200305 -0.158701
-1.705586 -0.224545 -0.091626
-1.661686 -0.445247 0.091626
-1.705586 -0.224545 0.091626
-1.482303 -0.397182 0.158701
-1.237261 -0.331523 0.183252
-0.992219 -0.265864 0.158701
-0.812836 -0.217799 0.091626
-0.812836 -0.217799 -0.091626
-0.992219 -0.265864 -0.158701
-1.237261 -0.331523 -0.183252
-1.482303 -0.397182 -0.158701
-1.661686 -0.445247 -0.091626
-1.652154 -0.684344 0.000000
-1.727345 -0.462840 0.000000
-1.589353 -0.658331 0.091626
-1.417779 -0.587263 0.158701
-1.183403 -0.490181 0.183252
-0.949028 -0.393100 0.158701
-0.777453 -0.322031 0.091626
-0.747177 -0.200205 0.000000
-0.714653 -0.296018 0.000000
-0.949028 -0.393100 -0.158701
-1.183403 -0.490181 -0.183252
-1.417779 -0.587263 -0.158701
-1.589353 -0.658331 -0.091626
-1.489827 -0.860152 0.091626
-1.328996 -0.767296 0.158701
-1.109298 -0.640453 0.183252
-0.889599 -0.513610 0.158701
-0.728769 -0.420755 0.091626
-0.669901 -0.386767 0.000000
-0.777453 -0.322031 -0.091626
-0.728769 -0.420755 -0.091626
-0.889599 -0.513610 -0.158701
-1.109298 -0.640453 -0.183252
-1.328996 -0.767296 -0.158701
-1.489827 -0.860152 -0.091626
-1.418737 -1.088635 0.000000
-1.548695 -0.894139 0.000000
-1.364808 -1.047254 0.091626
-1.217474 -0.934201 0.158701
-1.016211 -0.779766 0.183252
-0.814949 -0.625332 0.158701
-0.667614 -0.512278 0.091626
-0.613686 -0.470898 0.000000
-0.814949 -0.625332 -0.158701
-1.016211 -0.779766 -0.183252
-1.217474 -0.934201 -0.158701
-1.364808 -1.047254 -0.091626
-1.264504 -1.264503 0.000000
-1.216439 -1.216438 0.091626
-1.085121 -1.085120 0.158701
-0.905738 -0.905737 0.183252
-0.726355 -0.726354 0.158701
-0.595037 -0.595037 0.091626
-0.546971 -0.546971 0.000000
-0.667614 -0.512278 -0.091626
-0.726355 -0.726354 -0.158701
-0.905738 -0.905737 -0.183252
-1.085121 -1.085120 -0.158701
-1.216439 -1.216438 -0.091626
-1.088636 -1.418736 0.000000
-0.934201 -1.217474 0.158701
-0.779767 -1.016211 0.183252
-0.625333 -0.814948 0.158701
-0.512279 -0.667614 0.091626
-0.470898 -0.613686 0.000000
-0.595037 -0.595037 -0.091626
-0.512279 -0.667614 -0.091626
-0.625333 -0.814948 -0.158701
-0.779767 -1.016211 -0.183252
-0.934201 -1.217474 -0.158701
-0.894139 -1.548695 0.000000
-1.047255 -1.364808 0.091626
-0.767296 -1.328996 0.158701
-0.640453 -1.109298 0.183252
-0.420755 -0.728769 0.091626
-0.386767 -0.669901 0.000000
-0.420755 -0.728769 -0.091626
-0.640453 -1.109298 -0.183252
-0.767296 -1.328996 -0.158701
-1.047255 -1.364808 -0.091626
-0.658332 -1.589353 0.091626
-0.860152 -1.489827 0.091626
-0.490182 -1.183403 0.183252
-0.513610 -0.889599 0.158701
-0.393100 -0.949028 0.158701
-0.322032 -0.777453 0.091626
-0.322032 -0.777453 -0.091626
-0.393100 -0.949028 -0.158701
-0.513610 -0.889599 -0.158701
-0.490182 -1.183403 -0.183252
-0.658332 -1.589353 -0.091626
-0.860152 -1.489827 -0.091626
-0.462841 -1.727344 0.000000
-0.684345 -1.652154 0.000000
-0.445248 -1.661685 0.091626
-0.587263 -1.417779 0.158701
-0.397182 -1.482302 0.158701
-0.265864 -0.992219 0.158701
-0.217799 -0.812836 0.091626
-0.200206 -0.747177 0.000000
-0.296019 -0.714653 0.000000
-0.217799 -0.812836 -0.091626
-0.265864 -0.992219 -0.158701
-0.397182 -1.482302 -0.158701
-0.587263 -1.417779 -0.158701
-0.445248 -1.661685 -0.091626
-0.233418 -1.772979 0.000000
-0.224546 -1.705586 0.091626
-0.200305 -1.521464 0.158701
-0.331523 -1.237260 0.183252
-0.134080 -1.018432 0.158701
-0.109839 -0.834310 0.091626
-0.109839 -0.834310 -0.091626
-0.134080 -1.018432 -0.158701
-0.331523 -1.237260 -0.183252
-0.200305 -1.521464 -0.158701
-0.224546 -1.705586 -0.091626
0.000000 -1.720304 0.091626
0.000000 -1.534593 0.158701
0.000000 -1.280906 0.183252
-0.167193 -1.269948 0.183252
0.000000 -1.027220 0.158701
0.000000 -0.841509 0.091626
0.000000 -0.773534 0.000000
-0.100967 -0.766917 0.000000
0.000000 -0.841509 -0.091626
0.000000 -1.027220 -0.158701
-0.167193 -1.269948 -0.183252
0.000000 -1.280906 -0.183252
0.000000 -1.534593 -0.158701
0.000000 -1.720304 -0.091626
0.233417 -1.772980 0.000000
0.000000 -1.788279 0.000000
0.224544 -1.705586 0.091626
0.200304 -1.521464 0.158701
0.134079 -1.018432 0.158701
0.109839 -0.834310 0.091626
0.109839 -0.834310 -0.091626
0.134079 -1.018432 -0.158701
0.200304 -1.521464 -0.158701
0.224544 -1.705586 -0.091626
0.445247 -1.661686 0.091626
0.397181 -1.482303 0.158701
0.167192 -1.269948 0.183252
0.331522 -1.237261 0.183252
0.265864 -0.992219 0.158701
0.217798 -0.812836 0.091626
0.100966 -0.766917 0.000000
0.217798 -0.812836 -0.091626
0.265864 -0.992219 -0.158701
0.331522 -1.237261 -0.183252
0.167192 -1.269948 -0.183252
0.397181 -1.482303 -0.158701
0.445247 -1.661686 -0.091626
0.462840 -1.727345 0.000000
0.658332 -1.589353 0.091626
0.587263 -1.417778 0.158701
0.490182 -1.183403 0.183252
0.393100 -0.949028 0.158701
0.322032 -0.777453 0.091626
0.200205 -0.747177 0.000000
0.322032 -0.777453 -0.091626
0.393100 -0.949028 -0.158701
0.490182 -1.183403 -0.183252
0.587263 -1.417778 -0.158701
0.658332 -1.589353 -0.091626
0.684345 -1.652154 0.000000
0.860152 -1.489826 0.091626
0.767296 -1.328996 0.158701
0.640453 -1.109298 0.183252
0.513610 -0.889599 0.158701
0.420755 -0.728768 0.091626
0.386767 -0.669900 0.000000
0.296019 -0.714652 0.000000
0.420755 -0.728768 -0.091626
0.513610 -0.889599 -0.158701
0.640453 -1.109298 -0.183252
0.767296 -1.328996 -0.158701
0.860152 -1.489826 -0.091626
0.894139 -1.548695 0.000000
1.047254 -1.364809 0.091626
0.934200 -1.217474 0.158701
0.779766 -1.016212 0.183252
0.625332 -0.814949 0.158701
0.512278 -0.667614 0.091626
0.470898 -0.613686 0.000000
0.512278 -0.667614 -0.091626
0.625332 -0.814949 -0.158701
0.779766 -1.016212 -0.183252
0.934200 -1.217474 -0.158701
1.047254 -1.364809 -0.091626
1.264503 -1.264505 0.000000
1.088635 -1.418737 0.000000
1.085120 -1.085121 0.158701
0.905737 -0.905738 0.183252
0.726354 -0.726355 0.158701
0.595037 -0.595037 0.091626
0.595037 -0.595037 -0.091626
0.726354 -0.726355 -0.158701
0.905737 -0.905738 -0.183252
1.085120 -1.085121 -0.158701
1.418737 -1.088635 0.000000
1.216438 -1.216439 0.091626
1.364809 -1.047254 0.091626
1.217474 -0.934201 0.158701
0.814949 -0.625332 0.158701
0.667614 -0.512278 0.091626
0.613686 -0.470898 0.000000
0.546971 -0.546972 0.000000
0.667614 -0.512278 -0.091626
0.814949 -0.625332 -0.158701
1.217474 -0.934201 -0.158701
1.364809 -1.047254 -0.091626
1.216438 -1.216439 -0.091626
1.548694 -0.894139 0.000000
1.489826 -0.860152 0.091626
1.328996 -0.767296 0.158701
1.016212 -0.779766 0.183252
1.109297 -0.640453 0.183252
0.889599 -0.513610 0.158701
0.728768 -0.420755 0.091626
0.728768 -0.420755 -0.091626
0.889599 -0.513610 -0.158701
1.109297 -0.640453 -0.183252
1.016212 -0.779766 -0.183252
1.328996 -0.767296 -0.158701
1.489826 -0.860152 -0.091626
1.589353 -0.658332 0.091626
1.417778 -0.587264 0.158701
1.183403 -0.490182 0.183252
0.949028 -0.393101 0.158701
0.777453 -0.322032 0.091626
0.669900 -0.386767 0.000000
0.777453 -0.322032 -0.091626
0.949028 -0.393101 -0.158701
1.183403 -0.490182 -0.183252
1.417778 -0.587264 -0.158701
1.589353 -0.658332 -0.091626
1.727345 -0.462840 0.000000
1.652154 -0.684345 0.000000
1.482303 -0.397181 0.158701
1.237261 -0.331523 0.183252
0.992219 -0.265864 0.158701
0.812836 -0.217798 0.091626
0.714652 -0.296019 0.000000
0.812836 -0.217798 -0.091626
0.992219 -0.265864 -0.158701
1.482303 -0.397181 -0.158701
1.661686 -0.445247 -0.091626
1.772980 -0.233417 0.000000
1.661686 -0.445247 0.091626
1.705586 -0.224545 0.091626
1.521464 -0.200304 0.158701
1.269948 -0.167192 0.183252
0.834310 -0.109839 0.091626
0.766917 -0.100966 0.000000
0.747177 -0.200205 0.000000
0.834310 -0.109839 -0.091626
1.018432 -0.134079 -0.158701
1.237261 -0.331523 -0.183252
1.521464 -0.200304 -0.158701
1.705586 -0.224545 -0.091626
1.018432 -0.134079 0.158701
1.269948 -0.167192 -0.183252
3 0 1 2
3 1 3 4
3 4 5 6
3 6 7 8
3 8 9 10
3 9 11 10
3 12 13 11
3 14 15 13
3 16 17 15
3 18 19 17
3 20 21 19
3 21 0 2
3 0 22 23
3 23 24 3
3 24 5 3
3 5 25 7
3 7 26 9
3 26 12 9
3 27 14 12
3 28 16 14
3 29 18 16
3 18 30 20
3 30 31 20
3 32 0 31
3 33 22 34
3 22 35 24
3 24 36 37
3 36 25 37
3 38 26 25
3 39 27 26
3 27 40 28
3 28 41 29
3 29 42 43
3 42 30 43
3 44 32 30
3 45 34 32
3 46 47 33
3 48 35 47
3 49 36 35
3 50 38 36
3 51 39 38
3 52 53 39
3 54 40 53
3 40 55 41
3 41 56 42
3 42 57 44
3 44 58 45
3 45 46 33
3 46 59 48
3 48 60 49
3 49 61 50
3 50 62 51
3 51 63 52
3 52 64 54
3 64 65 54
3 66 55 65
3 67 56 55
3 68 57 56
3 69 58 57
3 70 46 58
3 71 59 72
3 73 60 59
3 74 61 60
3 75 62 61
3 76 63 62
3 77 64 63
3 64 78 66
3 66 79 67
3 67 80 68
3 68 81 69
3 69 82 70
3 70 71 72
3 83 73 71
3 73 84 74
3 74 85 75
3 85 76 75
3 86 77 76
3 87 88 77
3 88 89 78
3 78 90 79
3 79 91 80
3 91 81 80
3 92 82 81
3 82 83 71
3 93 94 83
3 95 84 94
3 96 85 84
3 85 97 86
3 86 98 87
3 87 99 100
3 99 89 100
3 101 90 89
3 102 91 90
3 91 103 92
3 92 104 105
3 105 93 83
3 106 95 93
3 107 96 95
3 108 109 96
3 110 97 109
3 111 98 97
3 112 99 98
3 99 113 101
3 101 114 102
3 102 115 116
3 116 117 103
3 103 118 104
3 104 106 93
3 119 107 106
3 120 108 107
3 108 121 110
3 110 122 111
3 111 123 112
3 112 124 125
3 124 113 125
3 126 114 113
3 127 115 114
3 128 117 115
3 117 129 118
3 118 119 106
3 130 120 119
3 131 132 120
3 132 133 121
3 121 134 122
3 122 135 123
3 123 136 124
3 136 126 124
3 137 127 126
3 138 128 127
3 139 140 128
3 140 141 129
3 129 130 119
3 130 142 131
3 131 143 144
3 144 145 133
3 145 134 133
3 134 146 135
3 135 147 136
3 147 137 136
3 148 138 137
3 138 149 139
3 149 150 139
3 151 141 150
3 152 130 141
3 153 142 154
3 155 143 142
3 156 145 143
3 145 157 158
3 157 146 158
3 159 147 146
3 147 160 148
3 148 161 162
3 161 149 162
3 149 163 151
3 151 164 152
3 152 153 154
3 153 165 155
3 155 166 156
3 156 167 168
3 168 169 157
3 157 170 159
3 170 171 159
3 171 172 160
3 172 161 160
3 173 174 161
3 175 163 174
3 176 164 163
3 177 153 164
3 178 179 165
3 165 180 166
3 180 167 166
3 181 169 167
3 182 170 169
3 183 184 170
3 184 185 172
3 172 186 173
3 173 187 175
3 175 188 176
3 188 177 176
3 189 178 177
3 190 179 191
3 179 192 180
3 192 181 180
3 181 193 182
3 182 194 183
3 183 195 196
3 195 185 196
3 197 186 185
3 198 187 186
3 187 199 188
3 199 189 188
3 189 190 191
3 190 200 201
3 200 192 201
3 192 202 203
3 202 193 203
3 204 194 193
3 205 195 194
3 195 206 197
3 197 207 198
3 198 208 209
3 208 199 209
3 199 210 211
3 210 190 211
3 212 213 200
3 213 214 200
3 215 202 214
3 216 204 202
3 217 205 204
3 218 219 205
3 219 220 206
3 206 221 207
3 207 222 208
3 208 223 224
3 224 225 210
3 225 212 210
3 226 227 213
3 213 228 215
3 215 229 216
3 216 230 217
3 217 231 218
3 231 232 218
3 233 220 232
3 234 221 220
3 235 222 221
3 236 223 222
3 237 225 223
3 238 226 225
3 239 227 240
3 241 228 227
3 228 242 229
3 229 243 230
3 230 244 231
3 231 245 233
3 245 234 233
3 246 235 234
3 247 236 235
3 248 237 236
3 249 238 237
3 238 239 240
3 250 241 239
3 251 252 241
3 253 242 252
3 254 243 242
3 255 244 243
3 256 245 244
3 245 257 246
3 246 258 247
3 247 259 248
3 248 260 249
3 260 261 249
3 262 239 261
3 263 251 250
3 251 264 253
3 253 265 254
3 254 266 255
3 255 267 256
3 256 268 269
3 268 257 269
3 270 258 257
3 271 259 258
3 272 260 259
3 273 262 260
3 262 263 250
3 274 275 263
3 276 264 275
3 264 277 265
3 265 278 266
3 266 279 267
3 267 280 268
3 280 270 268
3 281 271 270
3 282 272 271
3 283 273 272
3 273 284 285
3 285 274 263
3 274 286 276
3 286 287 276
3 288 277 287
3 289 278 277
3 290 279 278
3 291 280 279
3 280 292 281
3 281 293 282
3 282 294 283
3 283 295 296
3 296 297 284
3 297 274 284
3 298 286 299
3 286 300 288
3 288 301 289
3 289 302 290
3 290 303 291
3 291 304 305
3 304 292 305
3 306 293 292
3 307 294 293
3 308 295 294
3 309 297 295
3 310 299 297
3 298 311 312
3 312 313 300
3 313 301 300
3 314 302 301
3 315 303 302
3 316 304 303
3 304 317 306
3 306 318 307
3 307 319 308
3 308 320 309
3 320 310 309
3 321 298 310
3 322 311 323
3 324 313 311
3 325 314 313
3 326 315 314
3 327 316 315
3 328 329 316
3 330 317 329
3 317 331 318
3 318 332 319
3 319 333 320
3 320 334 321
3 334 323 321
3 322 335 324
3 324 336 325
3 325 337 326
3 326 338 327
3 327 339 328
3 328 340 330
3 340 341 330
3 342 331 341
3 343 332 331
3 344 333 332
3 345 334 333
3 346 322 334
3 347 335 348
3 349 336 335
3 350 337 336
3 351 338 337
3 352 339 338
3 353 340 339
3 354 342 340
3 342 355 343
3 343 356 344
3 344 357 345
3 345 358 346
3 346 347 348
3 359 349 347
3 360 350 349
3 361 351 350
3 362 352 351
3 363 353 352
3 364 354 353
3 365 366 354
3 366 367 355
3 355 368 356
3 356 369 357
3 357 370 358
3 358 359 347
3 371 360 359
3 360 372 361
3 361 373 362
3 362 374 363
3 363 375 364
3 364 376 365
3 376 377 365
3 378 367 377
3 379 368 367
3 380 369 368
3 381 370 369
3 370 371 359
3 382 383 371
3 383 384 372
3 372 385 373
3 385 374 373
3 374 386 375
3 375 387 376
3 387 378 376
3 388 379 378
3 379 389 380
3 389 381 380
3 390 391 381
3 391 382 371
3 382 392 393
3 392 384 393
3 384 394 385
3 394 395 385
3 396 386 395
3 397 387 386
3 387 398 388
3 388 399 400
3 400 401 389
3 401 390 389
3 390 402 403
3 402 382 403
3 404 392 405
3 406 407 392
3 408 394 407
3 394 409 396
3 396 410 397
3 397 411 412
3 411 398 412
3 413 399 398
3 414 401 399
3 401 415 416
3 416 417 402
3 402 404 405
3 418 406 404
3 419 408 406
3 420 421 408
3 421 422 409
3 422 410 409
3 423 411 410
3 411 424 413
3 413 425 414
3 425 426 414
3 426 427 415
3 415 428 417
3 417 418 404
3 418 429 419
3 419 430 420
3 420 431 432
3 432 433 422
3 422 434 423
3 423 435 436
3 435 424 436
3 437 425 424
3 438 439 425
3 440 427 439
3 441 428 427
3 442 418 428
3 443 429 444
3 445 430 429
3 446 431 430
3 431 447 433
3 447 434 433
3 448 435 434
3 435 449 437
3 437 450 438
3 450 440 438
3 440 451 441
3 441 452 442
3 442 443 444
3 443 453 445
3 445 454 446
3 454 455 446
3 456 447 455
3 457 448 447
3 458 459 448
3 459 460 449
3 449 461 450
3 450 462 463
3 463 464 451
3 464 452 451
3 465 443 452
3 466 467 453
3 467 454 453
3 468 456 454
3 469 457 456
3 470 458 457
3 471 472 458
3 472 473 460
3 460 474 461
3 461 475 462
3 462 476 464
3 464 477 465
3 477 466 465
3 478 479 467
3 467 480 468
3 468 481 469
3 469 482 470
3 470 483 471
3 471 484 485
3 484 473 485
3 486 474 473
3 487 475 474
3 488 476 475
3 489 477 476
3 490 478 477
3 491 492 479
3 479 493 480
3 480 494 481
3 481 495 482
3 482 496 483
3 483 497 484
3 497 486 484
3 498 487 486
3 499 488 487
3 500 489 488
3 501 490 489
3 502 491 490
3 503 492 504
3 492 505 493
3 493 506 494
3 494 507 495
3 495 508 496
3 508 497 496
3 497 509 498
3 509 499 498
3 510 500 499
3 511 501 500
3 512 502 501
3 502 503 504
3 513 514 503
3 515 505 514
3 516 506 505
3 506 517 507
3 507 518 508
3 508 519 520
3 519 509 520
3 521 510 509
3 522 511 510
3 511 523 512
3 512 524 525
3 525 513 503
3 526 515 513
3 527 516 515
3 528 529 516
3 530 517 529
3 531 518 517
3 532 519 518
3 519 533 521
3 521 534 522
3 522 535 536
3 536 537 523
3 523 538 524
3 524 526 513
3 526 539 527
3 527 540 528
3 528 541 530
3 530 542 531
3 531 543 532
3 543 544 532
3 544 545 533
3 545 534 533
3 546 535 534
3 547 537 535
3 548 538 537
3 549 526 538
3 550 539 551
3 539 552 540
3 552 541 540
3 553 542 541
3 554 543 542
3 555 556 543
3 556 557 545
3 545 558 546
3 558 547 546
3 547 559 548
3 559 549 548
3 560 551 549
3 561 562 550
3 563 552 562
3 564 553 552
3 565 554 553
3 554 566 555
3 555 567 568
3 567 557 568
3 569 558 557
3 570 571 558
3 571 572 559
3 559 573 560
3 560 561 550
3 561 1 563
3 1 564 563
3 4 565 564
3 6 574 565
3 8 566 574
3 10 567 566
3 11 569 567
3 569 15 570
3 570 17 575
3 575 19 572
3 572 21 573
3 21 561 573
3 0 23 1
3 1 23 3
3 4 3 5
3 6 5 7
3 8 7 9
3 9 12 11
3 12 14 13
3 14 16 15
3 16 18 17
3 18 20 19
3 20 31 21
3 21 31 0
3 0 34 22
3 23 22 24
3 24 37 5
3 5 37 25
3 7 25 26
3 26 27 12
3 27 28 14
3 28 29 16
3 29 43 18
3 18 43 30
3 30 32 31
3 32 34 0
3 33 47 22
3 22 47 35
3 24 35 36
3 36 38 25
3 38 39 26
3 39 53 27
3 27 53 40
3 28 40 41
3 29 41 42
3 42 44 30
3 44 45 32
3 45 33 34
3 46 48 47
3 48 49 35
3 49 50 36
3 50 51 38
3 51 52 39
3 52 54 53
3 54 65 40
3 40 65 55
3 41 55 56
3 42 56 57
3 44 57 58
3 45 58 46
3 46 72 59
3 48 59 60
3 49 60 61
3 50 61 62
3 51 62 63
3 52 63 64
3 64 66 65
3 66 67 55
3 67 68 56
3 68 69 57
3 69 70 58
3 70 72 46
3 71 73 59
3 73 74 60
3 74 75 61
3 75 76 62
3 76 77 63
3 77 88 64
3 64 88 78
3 66 78 79
3 67 79 80
3 68 80 81
3 69 81 82
3 70 82 71
3 83 94 73
3 73 94 84
3 74 84 85
3 85 86 76
3 86 87 77
3 87 100 88
3 88 100 89
3 78 89 90
3 79 90 91
3 91 92 81
3 92 105 82
3 82 105 83
3 93 95 94
3 95 96 84
3 96 109 85
3 85 109 97
3 86 97 98
3 87 98 99
3 99 101 89
3 101 102 90
3 102 116 91
3 91 116 103
3 92 103 104
3 105 104 93
3 106 107 95
3 107 108 96
3 108 110 109
3 110 111 97
3 111 112 98
3 112 125 99
3 99 125 113
3 101 113 114
3 102 114 115
3 116 115 117
3 103 117 118
3 104 118 106
3 119 120 107
3 120 132 108
3 108 132 121
3 110 121 122
3 111 122 123
3 112 123 124
3 124 126 113
3 126 127 114
3 127 128 115
3 128 140 117
3 117 140 129
3 118 129 119
3 130 131 120
3 131 144 132
3 132 144 133
3 121 133 134
3 122 134 135
3 123 135 136
3 136 137 126
3 137 138 127
3 138 139 128
3 139 150 140
3 140 150 141
3 129 141 130
3 130 154 142
3 131 142 143
3 144 143 145
3 145 158 134
3 134 158 146
3 135 146 147
3 147 148 137
3 148 162 138
3 138 162 149
3 149 151 150
3 151 152 141
3 152 154 130
3 153 155 142
3 155 156 143
3 156 168 145
3 145 168 157
3 157 159 146
3 159 171 147
3 147 171 160
3 148 160 161
3 161 174 149
3 149 174 163
3 151 163 164
3 152 164 153
3 153 178 165
3 155 165 166
3 156 166 167
3 168 167 169
3 157 169 170
3 170 184 171
3 171 184 172
3 172 173 161
3 173 175 174
3 175 176 163
3 176 177 164
3 177 178 153
3 178 191 179
3 165 179 180
3 180 181 167
3 181 182 169
3 182 183 170
3 183 196 184
3 184 196 185
3 172 185 186
3 173 186 187
3 175 187 188
3 188 189 177
3 189 191 178
3 190 201 179
3 179 201 192
3 192 203 181
3 181 203 193
3 182 193 194
3 183 194 195
3 195 197 185
3 197 198 186
3 198 209 187
3 187 209 199
3 199 211 189
3 189 211 190
3 190 212 200
3 200 214 192
3 192 214 202
3 202 204 193
3 204 205 194
3 205 219 195
3 195 219 206
3 197 206 207
3 198 207 208
3 208 224 199
3 199 224 210
3 210 212 190
3 212 226 213
3 213 215 214
3 215 216 202
3 216 217 204
3 217 218 205
3 218 232 219
3 219 232 220
3 206 220 221
3 207 221 222
3 208 222 223
3 224 223 225
3 225 226 212
3 226 240 227
3 213 227 228
3 215 228 229
3 216 229 230
3 217 230 231
3 231 233 232
3 233 234 220
3 234 235 221
3 235 236 222
3 236 237 223
3 237 238 225
3 238 240 226
3 239 241 227
3 241 252 228
3 228 252 242
3 229 242 243
3 230 243 244
3 231 244 245
3 245 246 234
3 246 247 235
3 247 248 236
3 248 249 237
3 249 261 238
3 238 261 239
3 250 251 241
3 251 253 252
3 253 254 242
3 254 255 243
3 255 256 244
3 256 269 245
3 245 269 257
3 246 257 258
3 247 258 259
3 248 259 260
3 260 262 261
3 262 250 239
3 263 275 251
3 251 275 264
3 253 264 265
3 254 265 266
3 255 266 267
3 256 267 268
3 268 270 257
3 270 271 258
3 271 272 259
3 272 273 260
3 273 285 262
3 262 285 263
3 274 276 275
3 276 287 264
3 264 287 277
3 265 277 278
3 266 278 279
3 267 279 280
3 280 281 270
3 281 282 271
3 282 283 272
3 283 296 273
3 273 296 284
3 285 284 274
3 274 299 286
3 286 288 287
3 288 289 277
3 289 290 278
3 290 291 279
3 291 305 280
3 280 305 292
3 281 292 293
3 282 293 294
3 283 294 295
3 296 295 297
3 297 299 274
3 298 312 286
3 286 312 300
3 288 300 301
3 289 301 302
3 290 302 303
3 291 303 304
3 304 306 292
3 306 307 293
3 307 308 294
3 308 309 295
3 309 310 297
3 310 298 299
3 298 323 311
3 312 311 313
3 313 314 301
3 314 315 302
3 315 316 303
3 316 329 304
3 304 329 317
3 306 317 318
3 307 318 319
3 308 319 320
3 320 321 310
3 321 323 298
3 322 324 311
3 324 325 313
3 325 326 314
3 326 327 315
3 327 328 316
3 328 330 329
3 330 341 317
3 317 341 331
3 318 331 332
3 319 332 333
3 320 333 334
3 334 322 323
3 322 348 335
3 324 335 336
3 325 336 337
3 326 337 338
3 327 338 339
3 328 339 340
3 340 342 341
3 342 343 331
3 343 344 332
3 344 345 333
3 345 346 334
3 346 348 322
3 347 349 335
3 349 350 336
3 350 351 337
3 351 352 338
3 352 353 339
3 353 354 340
3 354 366 342
3 342 366 355
3 343 355 356
3 344 356 357
3 345 357 358
3 346 358 347
3 359 360 349
3 360 361 350
3 361 362 351
3 362 363 352
3 363 364 353
3 364 365 354
3 365 377 366
3 366 377 367
3 355 367 368
3 356 368 369
3 357 369 370
3 358 370 359
3 371 383 360
3 360 383 372
3 361 372 373
3 362 373 374
3 363 374 375
3 364 375 376
3 376 378 377
3 378 379 367
3 379 380 368
3 380 381 369
3 381 391 370
3 370 391 371
3 382 393 383
3 383 393 384
3 372 384 385
3 385 395 374
3 374 395 386
3 375 386 387
3 387 388 378
3 388 400 379
3 379 400 389
3 389 390 381
3 390 403 391
3 391 403 382
3 382 405 392
3 392 407 384
3 384 407 394
3 394 396 395
3 396 397 386
3 397 412 387
3 387 412 398
3 388 398 399
3 400 399 401
3 401 416 390
3 390 416 402
3 402 405 382
3 404 406 392
3 406 408 407
3 408 421 394
3 394 421 409
3 396 409 410
3 397 410 411
3 411 413 398
3 413 414 399
3 414 426 401
3 401 426 415
3 416 415 417
3 402 417 404
3 418 419 406
3 419 420 408
3 420 432 421
3 421 432 422
3 422 423 410
3 423 436 411
3 411 436 424
3 413 424 425
3 425 439 426
3 426 439 427
3 415 427 428
3 417 428 418
3 418 444 429
3 419 429 430
3 420 430 431
3 432 431 433
3 422 433 434
3 423 434 435
3 435 437 424
3 437 438 425
3 438 440 439
3 440 441 427
3 441 442 428
3 442 444 418
3 443 445 429
3 445 446 430
3 446 455 431
3 431 455 447
3 447 448 434
3 448 459 435
3 435 459 449
3 437 449 450
3 450 463 440
3 440 463 451
3 441 451 452
3 442 452 443
3 443 466 453
3 445 453 454
3 454 456 455
3 456 457 447
3 457 458 448
3 458 472 459
3 459 472 460
3 449 460 461
3 450 461 462
3 463 462 464
3 464 465 452
3 465 466 443
3 466 478 467
3 467 468 454
3 468 469 456
3 469 470 457
3 470 471 458
3 471 485 472
3 472 485 473
3 460 473 474
3 461 474 475
3 462 475 476
3 464 476 477
3 477 478 466
3 478 491 479
3 467 479 480
3 468 480 481
3 469 481 482
3 470 482 483
3 471 483 484
3 484 486 473
3 486 487 474
3 487 488 475
3 488 489 476
3 489 490 477
3 490 491 478
3 491 504 492
3 479 492 493
3 480 493 494
3 481 494 495
3 482 495 496
3 483 496 497
3 497 498 486
3 498 499 487
3 499 500 488
3 500 501 489
3 501 502 490
3 502 504 491
3 503 514 492
3 492 514 505
3 493 505 506
3 494 506 507
3 495 507 508
3 508 520 497
3 497 520 509
3 509 510 499
3 510 511 500
3 511 512 501
3 512 525 502
3 502 525 503
3 513 515 514
3 515 516 505
3 516 529 506
3 506 529 517
3 507 517 518
3 508 518 519
3 519 521 509
3 521 522 510
3 522 536 511
3 511 536 523
3 512 523 524
3 525 524 513
3 526 527 515
3 527 528 516
3 528 530 529
3 530 531 517
3 531 532 518
3 532 544 519
3 519 544 533
3 521 533 534
3 522 534 535
3 536 535 537
3 523 537 538
3 524 538 526
3 526 551 539
3 527 539 540
3 528 540 541
3 530 541 542
3 531 542 543
3 543 556 544
3 544 556 545
3 545 546 534
3 546 547 535
3 547 548 537
3 548 549 538
3 549 551 526
3 550 562 539
3 539 562 552
3 552 553 541
3 553 554 542
3 554 555 543
3 555 568 556
3 556 568 557
3 545 557 558
3 558 571 547
3 547 571 559
3 559 560 549
3 560 550 551
3 561 563 562
3 563 564 552
3 564 565 553
3 565 574 554
3 554 574 566
3 555 566 567
3 567 569 557
3 569 570 558
3 570 575 571
3 571 575 572
3 559 572 573
3 560 573 561
3 561 2 1
3 1 4 564
3 4 6 565
3 6 8 574
3 8 10 566
3 10 11 567
3 11 13 569
3 569 13 15
3 570 15 17
3 575 17 19
3 572 19 21
3 21 2 561
