# Blender v2.79 (sub 0) OBJ File: ''
# www.blender.org
o cbox_ceiling.002
v 556.000000 548.799988 0.000024
v 556.000000 548.799988 559.200012
v 0.000000 548.799988 559.200012
v 0.000000 548.799988 0.000024
v 213.000000 548.799988 227.000031
v 213.000000 548.799988 332.000031
v 343.000000 548.799988 332.000031
v 343.000000 548.799988 227.000031
vt 0.000000 0.000000
vt 0.841150 1.000000
vt 0.000000 1.000000
vt 1.000000 0.000000
vt 0.841150 0.232475
vt 0.841150 0.000000
vt 0.841150 0.000000
vt 1.000000 0.232475
vn 0.0000 -1.0000 0.0000
vn 0.0000 1.0000 0.0000
s off
f 2/1/1 4/2/1 1/3/1
f 6/4/2 8/5/2 5/6/2
f 2/1/1 3/7/1 4/2/1
f 6/4/2 7/8/2 8/5/2
