# Blender v2.79 (sub 0) OBJ File: ''
# www.blender.org
o cbox_smallbox
v 130.000000 165.000000 65.000008
v 82.000000 164.999985 225.000000
v 240.000000 164.999985 272.000000
v 290.000000 165.000000 114.000008
v 290.000000 -0.000005 114.000000
v 290.000000 165.000000 114.000008
v 240.000000 164.999985 272.000000
v 240.000000 -0.000012 272.000000
v 130.000000 -0.000003 65.000000
v 130.000000 165.000000 65.000008
v 290.000000 165.000000 114.000008
v 290.000000 -0.000005 114.000000
v 82.000000 -0.000010 225.000000
v 82.000000 164.999985 225.000000
v 130.000000 165.000000 65.000008
v 130.000000 -0.000003 65.000000
v 240.000000 -0.000012 272.000000
v 240.000000 164.999985 272.000000
v 82.000000 164.999985 225.000000
v 82.000000 -0.000010 225.000000
v 290.000000 -0.000005 114.000000
v 240.000000 -0.000012 272.000000
v 82.000000 -0.000010 225.000000
v 130.000000 -0.000003 65.000000
vt 0.336076 0.335970
vt 0.000000 0.335970
vt 0.000771 0.005000
vt 0.334149 0.000000
vt 1.000000 0.668713
vt 0.668038 0.668713
vt 0.668038 0.335975
vt 1.000000 0.335975
vt 0.331962 0.671945
vt 0.000000 0.671945
vt 0.000000 0.335970
vt 0.331962 0.335970
vt 0.336076 0.335975
vt 0.668038 0.335975
vt 0.668038 0.671368
vt 0.336076 0.671368
vt 0.999683 0.668713
vt 0.999683 1.000000
vt 0.668038 1.000000
vt 0.668038 0.668713
vt 0.672147 0.335975
vt 0.338745 0.332879
vt 0.336076 0.001920
vt 0.672147 0.000000
vn -0.0000 1.0000 0.0000
vn 0.9534 -0.0000 0.3017
vn 0.2928 0.0000 -0.9562
vn -0.9578 0.0000 -0.2873
vn -0.2851 0.0000 0.9585
vn -0.0000 -1.0000 -0.0000
s 1
f 1/1/1 2/2/1 3/3/1
f 1/1/1 3/3/1 4/4/1
f 5/5/2 6/6/2 7/7/2
f 5/5/2 7/7/2 8/8/2
f 9/9/3 10/10/3 11/11/3
f 9/9/3 11/11/3 12/12/3
f 13/13/4 14/14/4 15/15/4
f 13/13/4 15/15/4 16/16/4
f 17/17/5 18/18/5 19/19/5
f 17/17/5 19/19/5 20/20/5
f 21/21/6 22/22/6 23/23/6
f 21/21/6 23/23/6 24/24/6
