<?xml version="1.0" encoding="UTF-8"?>
<!-- Created with Inkscape (http://www.inkscape.org/) -->
<svg width="438.8" height="267.32" version="1.1" viewBox="0 0 116.1 70.729" xmlns="http://www.w3.org/2000/svg"><defs><marker id="Arrow1Mend" overflow="visible" orient="auto"><path transform="matrix(-.4 0 0 -.4 -4 0)" d="m0 0 5-5-17.5 5 17.5 5z" fill="context-stroke" fill-rule="evenodd" stroke="context-stroke" stroke-width="1pt"/></marker><marker id="Arrow1Mend-2" overflow="visible" orient="auto"><path transform="matrix(-.4 0 0 -.4 -4 0)" d="m0 0 5-5-17.5 5 17.5 5z" fill="context-stroke" fill-rule="evenodd" stroke="context-stroke" stroke-width="1pt"/></marker></defs><g transform="translate(-116.84 -120.61)"><path d="m127.45 170.31 28.78 15.381 23.855-20.965-26.203-10.318z" fill="#afafde" fill-rule="evenodd" stroke="#000" stroke-linejoin="round" stroke-width=".58196"/><g transform="matrix(1.6514 0 0 1.6514 -43.721 -127)"><path d="m112.31 164.38v0.0859h0.26367v-0.0859zm0 0.34961v0.26562h0.26367v-0.26562zm0 0.52929v0.26563h0.26367v-0.26563zm0 0.5293v0.26367h0.26367v-0.26367zm0 0.5293v0.26367h0.26367v-0.26367zm0 0.52929v0.26367h0.26367v-0.26367zm0 0.5293v0.26367h0.26367v-0.26367zm0 0.5293v0.26367h0.26367v-0.26367zm0 0.52929v0.26368h0.26367v-0.26368zm0 0.5293v0.26367h0.26367v-0.26367zm0 0.5293v0.26367h0.26367v-0.26367zm0 0.52734v0.26563h0.26367v-0.26563zm0 0.5293v0.26562h0.26367v-0.26562zm0 0.52929v0.26563h0.26367v-0.26563zm0 0.5293v0.26563h0.26367v-0.26563zm0 0.5293v0.26562h0.26367v-0.26562zm0 0.5293v0.26562h0.26367v-0.26562zm0 0.52929v0.26563h0.26367v-0.26563zm0 0.5293v0.26367h0.26367v-0.26367zm0 0.5293v0.26367h0.26367v-0.26367zm0 0.52929v0.26367h0.26367v-0.26367z" color="#000000" fill="#800000" stroke-dasharray="0.264583, 0.264583" style="-inkscape-stroke:none"/><path d="m112.5 174.93-0.11914 0.23633 0.23828 0.11718 0.11719-0.23633zm0.47265 0.23437-0.11718 0.23828 0.23632 0.11719 0.11914-0.23633zm0.47461 0.23633-0.11718 0.23633 0.23632 0.11719 0.11719-0.23633zm0.47461 0.23438-0.11914 0.23828 0.23828 0.11718 0.11719-0.23632zm0.47266 0.23632-0.11719 0.23633 0.23633 0.11914 0.11914-0.23828zm0.47461 0.23633-0.11719 0.23633 0.23633 0.11719 0.11719-0.23633zm0.47265 0.23438-0.11718 0.23828 0.23632 0.11719 0.11915-0.23829zm0.47461 0.23632-0.11718 0.23633 0.23632 0.11719 0.11719-0.23633zm0.47461 0.23438-0.11914 0.23828 0.23828 0.11719 0.11719-0.23633zm0.47266 0.23633-0.11719 0.23633 0.23633 0.11914 0.11914-0.23828zm0.47461 0.23633-0.11719 0.23632 0.23633 0.11719 0.11719-0.23633zm0.47461 0.23437-0.11914 0.23633 0.23828 0.11914 0.11719-0.23828zm0.47265 0.23633-0.11718 0.23633 0.12695 0.0644 0.11914-0.23828z" color="#000000" fill="#800000" stroke-dasharray="0.264583, 0.264583" style="-inkscape-stroke:none"/><path d="m112.44 164.38 5.8143 13.558" color="#000000" fill="#800000" stroke-width=".26458px" style="-inkscape-stroke:none"/><path d="m112.56 164.33-0.24414 0.10352 5.8144 13.559 0.24414-0.10546z" color="#000000" fill="#800000" style="-inkscape-stroke:none"/><g fill="#800000" fill-rule="evenodd"><path d="m118.13 177.65-0.34745-0.13888 0.60816 0.74679-0.12183-0.95536z" color="#000000" stroke-width=".052917pt" style="-inkscape-stroke:none"/><path d="m118.29 177.16-0.17578 0.44141-0.44141-0.17578 0.77148 0.94726zm-0.0352 0.27735 0.0879 0.69922-0.44336-0.54493 0.25391 0.10157 0.0117-0.0332z" color="#000000" style="-inkscape-stroke:none"/></g></g><g transform="matrix(1.7781 0 0 1.7781 -61.341 -147.67)"><path d="m106.01 168.19v0.084h0.26367v-0.084zm0 0.34961v0.26367h0.26367v-0.26367zm0 0.5293v0.26367h0.26367v-0.26367zm0 0.52734v0.26562h0.26367v-0.26562zm0 0.5293v0.26562h0.26367v-0.26562zm0 0.52929v0.26563h0.26367v-0.26563zm0 0.5293v0.26562h0.26367v-0.26562zm0 0.5293v0.26562h0.26367v-0.26562zm0 0.52929v0.26563h0.26367v-0.26563zm0 0.5293v0.26563h0.26367v-0.26563zm0 0.5293v0.26367h0.26367v-0.26367zm0 0.52929v0.26368h0.26367v-0.26368zm0 0.5293v0.26367h0.26367v-0.26367zm0 0.5293v0.26367h0.26367v-0.26367zm0 0.52929v0.26368h0.26367v-0.26368zm0 0.5293v0.26367h0.26367v-0.26367zm0 0.5293v0.26367h0.26367v-0.26367zm0 0.5293v0.26367h0.26367v-0.26367zm0 0.52734v0.26562h0.26367v-0.26562zm0 0.5293v0.26562h0.26367v-0.26562zm0 0.52929v0.26563h0.26367v-0.26563z" color="#000000" fill="#008000" stroke-dasharray="0.264583, 0.264583" style="-inkscape-stroke:none"/><path d="m118.01 177.82-0.26367 0.0195 0.0195 0.26367 0.26367-0.0195zm-0.5293 0.0391-0.26367 0.0215 0.0215 0.26367 0.26367-0.0215zm-0.52734 0.041-0.26367 0.0195 0.0215 0.26367 0.26367-0.0195zm-0.52734 0.0391-0.26368 0.0215 0.0195 0.26368 0.26368-0.0195zm-0.52735 0.041-0.26367 0.0195 0.0195 0.26367 0.26367-0.0195zm-0.52734 0.041-0.26367 0.0195 0.0195 0.26367 0.26367-0.0195zm-0.52735 0.0391-0.26367 0.0215 0.0195 0.26367 0.26368-0.0215zm-0.52734 0.041-0.26367 0.0195 0.0195 0.26367 0.26367-0.0195zm-0.5293 0.041-0.26367 0.0195 0.0215 0.26367 0.26367-0.0195zm-0.52734 0.0391-0.26367 0.0195 0.0215 0.26367 0.26367-0.0195zm-0.52734 0.041-0.26368 0.0195 0.0195 0.26368 0.26367-0.0195zm-0.52735 0.0391-0.26367 0.0215 0.0195 0.26367 0.26367-0.0215zm-0.52734 0.041-0.26367 0.0195 0.0195 0.26367 0.26367-0.0195zm-0.52735 0.041-0.26367 0.0195 0.0195 0.26367 0.26368-0.0195zm-0.52734 0.0391-0.26562 0.0195 0.0215 0.26562 0.26367-0.0215zm-0.5293 0.041-0.26367 0.0195 0.0215 0.26367 0.26367-0.0195zm-0.52734 0.0391-0.26367 0.0215 0.0195 0.26367 0.26562-0.0215zm-0.52734 0.041-0.26368 0.0195 0.0195 0.26368 0.26367-0.0195zm-0.52735 0.041-0.26367 0.0195 0.0195 0.26367 0.26367-0.0195zm-0.52734 0.0391-0.26367 0.0195 0.0195 0.26563 0.26367-0.0215zm-0.52734 0.041-0.26368 0.0195 0.0195 0.26367 0.26368-0.0195zm-0.52735 0.0391-0.26562 0.0215 0.0215 0.26367 0.26367-0.0215zm-0.5293 0.041-0.26367 0.0195 0.0215 0.26367 0.26367-0.0195z" color="#000000" fill="#008000" stroke-dasharray="0.264583, 0.264583" style="-inkscape-stroke:none"/><path d="m106.14 168.19 12.11 9.7443" color="#000000" fill="#008000" stroke-width=".26458" style="-inkscape-stroke:none"/><path d="m106.23 168.09-0.16601 0.20703 12.109 9.7442 0.16602-0.20704z" color="#000000" fill="#008000" style="-inkscape-stroke:none"/><g fill="#008000" fill-rule="evenodd"><path d="m118.01 177.74-0.372 0.0403 0.88733 0.37441-0.55559-0.78668z" color="#000000" stroke-width=".052917pt" style="-inkscape-stroke:none"/><path d="m117.92 177.23 0.0508 0.47266-0.47266 0.0508 1.127 0.47656zm0.0996 0.26172 0.40625 0.57618-0.64844-0.27344 0.27148-0.0293-4e-3 -0.0352z" color="#000000" style="-inkscape-stroke:none"/></g></g><g transform="matrix(1.535 0 0 1.535 -31.134 -101.99)"><path d="m112.68 171.47v0.0859h0.26563v-0.0859zm0 0.34961v0.26367h0.26563v-0.26367zm0 0.5293v0.26367h0.26563v-0.26367zm0 0.5293v0.26367h0.26563v-0.26367zm0 0.52929v0.26367h0.26563v-0.26367zm0 0.5293v0.26367h0.26563v-0.26367zm0 0.5293v0.26367h0.26563v-0.26367zm0 0.52929v0.26368h0.26563v-0.26368zm0 0.5293v0.26367h0.26563v-0.26367zm0 0.52734v0.26563h0.26563v-0.26563zm0 0.5293v0.26563h0.26563v-0.26563zm0 0.5293v0.26562h0.26563v-0.26562zm0 0.52929v0.26563h0.26563v-0.26563zm0 0.5293v0.26563h0.26563v-0.26563zm0 0.5293v0.26562h0.26563v-0.26562zm0 0.5293v0.26562h0.26563v-0.26562zm0 0.52929v0.26367h0.26563v-0.26367zm0 0.5293v0.26367h0.26563v-0.26367zm0 0.5293v0.26367h0.26563v-0.26367zm0 0.52929v0.26367h0.26563v-0.26367zm0 0.5293v0.26367h0.26563v-0.26367z" color="#000000" fill="#000080" stroke-dasharray="0.264583, 0.264583" style="-inkscape-stroke:none"/><path d="m117.97 177.99-0.21094 0.16211 0.16211 0.20899 0.20899-0.16211zm-0.41992 0.32422-0.20899 0.16211 0.16211 0.20899 0.20899-0.16211zm-0.41797 0.32227-0.20898 0.16211 0.16015 0.20898 0.21094-0.16015zm-0.41992 0.32422-0.20899 0.16211 0.16211 0.20898 0.20899-0.16211zm-0.41797 0.32422-0.20899 0.16015 0.16211 0.21094 0.20899-0.16211zm-0.41797 0.32226-0.21094 0.16211 0.16211 0.20899 0.20899-0.16211zm-0.41992 0.32422-0.20899 0.16211 0.16211 0.20898 0.20899-0.16211zm-0.41797 0.32422-0.20898 0.16016 0.16015 0.21093 0.21094-0.16211zm-0.41992 0.32226-0.20899 0.16211 0.16211 0.20899 0.20899-0.16211zm-0.41797 0.32422-0.20899 0.16211 0.16211 0.20899 0.20899-0.16211zm-0.41797 0.32227-0.21094 0.16211 0.16211 0.20898 0.20899-0.16015zm-0.41992 0.32422-0.20899 0.16211 0.16211 0.20898 0.20899-0.16211zm-0.41797 0.32422-0.20898 0.16211 0.16015 0.20898 0.21094-0.16211z" color="#000000" fill="#000080" stroke-dasharray="0.264583, 0.264583" style="-inkscape-stroke:none"/><path d="m112.81 171.47 5.4385 6.4662" color="#000000" fill="#000080" stroke-width=".26458px" style="-inkscape-stroke:none"/><path d="m112.92 171.39-0.20313 0.16992 5.4394 6.4668 0.20118-0.17188z" color="#000000" fill="#000080" style="-inkscape-stroke:none"/><g fill="#000080" fill-rule="evenodd"><path d="m118.05 177.69-0.37279-0.0322 0.79856 0.53839-0.39358-0.879z" color="#000000" stroke-width=".052917pt" style="-inkscape-stroke:none"/><path d="m118.06 177.18-0.041 0.47266-0.47266-0.041 1.0137 0.6836zm0.0469 0.27539 0.28711 0.64258-0.58204-0.39258 0.27149 0.0234 4e-3 -0.0351z" color="#000000" style="-inkscape-stroke:none"/></g></g><path d="m154.09 168.28 17.483-13.076" fill="none" marker-end="url(#Arrow1Mend-2)" stroke="#000" stroke-width=".58196px"/><path d="m154.09 168.28 17.483-13.076" color="#000000" fill="#f60" stroke-width=".79375" style="-inkscape-stroke:none"/><path d="m171.34 154.89-17.485 13.077 0.47686 0.6358 17.485-13.077z" color="#000000" fill="#f60" stroke-width="2.1995" style="-inkscape-stroke:none"/><g transform="matrix(2.1995 0 0 2.1995 -106.01 -223.1)" fill="#f60" fill-rule="evenodd"><path d="m125.05 172.86-0.14571 1.0102 1.5906-2.0909-2.4552 0.93496z" color="#000000" stroke-width=".14435pt" style="-inkscape-stroke:none"/><path d="m126.77 171.57-3.1172 1.1875 1.2832 0.18554-0.18555 1.2812zm-0.5625 0.41992-1.1602 1.5273 0.10547-0.73828-0.0957-0.0137-0.64062-0.0937z" color="#000000" style="-inkscape-stroke:none"/></g><path d="m154.2 168.02-0.22769 0.53269 21.252 9.0258 0.2277-0.53699z" color="#000000" stroke-width="2.1995" style="-inkscape-stroke:none"/><g transform="matrix(2.1995 0 0 2.1995 -106.01 -223.1)" fill-rule="evenodd"><path d="m126.94 181.63-0.69391 0.28022 1.9116 0.23689-1.4979-1.211z" color="#000000" stroke-width=".10583pt" style="-inkscape-stroke:none"/><path d="m126.49 180.71 0.35352 0.88086-0.87891 0.35547 2.4258 0.30078zm0.33399 0.45313 1.0938 0.88281-1.3965-0.17188 0.50781-0.20507-0.0273-0.0664z" color="#000000" style="-inkscape-stroke:none"/></g><path d="m154.09 168.28v-35.58" fill="none" marker-end="url(#Arrow1Mend)" stroke="#000" stroke-width=".58196px"/><path d="m154.09 168.28v-35.58" color="#000000" fill="#fc0" stroke-width=".79375" style="-inkscape-stroke:none"/><path d="m153.69 132.7v35.579h0.79473v-35.579z" color="#000000" fill="#fc0" stroke-width="2.1995" style="-inkscape-stroke:none"/><g transform="matrix(2.1995 0 0 2.1995 -106.01 -223.1)" fill="#fc0" fill-rule="evenodd"><path d="m118.25 163.2 0.72174 0.72175-0.72174-2.5261-0.72174 2.5261z" color="#000000" stroke-width=".14435pt" style="-inkscape-stroke:none"/><path d="m118.25 161.05-0.91797 3.207 0.91797-0.91797 0.91601 0.91797zm0 0.70117 0.52734 1.8438-0.52734-0.52734-0.52934 0.52934z" color="#000000" style="-inkscape-stroke:none"/></g><g><circle cx="154.11" cy="167.94" r="1" fill="#f60" stroke="#f60" stroke-width=".79375"/><circle cx="154.11" cy="131.75" r="1" fill="#f60" stroke="#f60" stroke-width=".79375"/><rect x="180.22" y="177.32" width="51.13" height="12.428" ry="2.3706" fill="#e3e3e6" stroke="#808080" stroke-width=".52917"/></g><g fill="#f60" stroke-width=".58196" aria-label="origin [0,0,0]"><path d="m185.43 181.61c-0.7938 0-1.9034 0.64016-1.9034 2.057 0 0.95597 0.70845 1.8949 1.9034 1.8949 0.84501 0 1.8778-0.6487 1.8778-2.04 0-1.0584-0.81087-1.9119-1.8693-1.9119zm-0.0939 0.31581c0.74258 0 1.1523 0.7938 1.1523 1.7924 0 1.1438-0.43531 1.5278-0.96451 1.5278-0.70844 0-1.1779-0.78526-1.1779-1.8436 0-0.97304 0.47798-1.4766 0.98157-1.4766z"/><path d="m189.12 182.53v-0.93037c-0.4097 0.17071-0.79379 0.27314-1.2291 0.34142v0.23046c0.50359 0.0597 0.53773 0.0939 0.53773 0.64869v1.7412c0 0.55481-0.0597 0.59748-0.60601 0.6487v0.25606h2.0058v-0.25606c-0.66577-0.0512-0.70845-0.0939-0.70845-0.65723v-1.5022c0.17925-0.48652 0.46945-0.75112 0.69991-0.75112 0.13657 0 0.23899 0.0512 0.36703 0.17071 0.0512 0.0598 0.12803 0.0683 0.22192 0.0256 0.17924-0.0768 0.28167-0.25606 0.28167-0.4353 0-0.21339-0.20485-0.44385-0.50359-0.44385-0.41824 0-0.77673 0.46092-1.0499 0.9133z"/><path d="m192.03 179.88c-0.239 0-0.45238 0.20485-0.45238 0.47798 0 0.23899 0.21338 0.45238 0.45238 0.45238 0.25606 0 0.45238-0.21339 0.45238-0.46091 0-0.2646-0.19632-0.46945-0.44385-0.46945zm1.0157 5.5822v-0.25606c-0.55481-0.0512-0.61456-0.10243-0.61456-0.6743v-2.9362c-0.36702 0.15364-0.78526 0.2646-1.2376 0.33288v0.239c0.5292 0.0768 0.54627 0.11096 0.54627 0.64016v1.7242c0 0.58041-0.0598 0.62308-0.60602 0.6743v0.25606z"/><path d="m197.23 181.72c-0.34142 0.0512-0.76819 0.10242-1.1779 0.11949-0.25607-0.1451-0.54627-0.22192-0.83648-0.22192h-9e-3c-0.65723 0-1.5449 0.45238-1.5449 1.4169 0 0.58894 0.36703 0.97304 0.73405 1.1352-0.13657 0.16218-0.40117 0.40117-0.74258 0.5292-9e-3 0.0768 0.0171 0.23046 0.0939 0.35849 0.11096 0.17924 0.33288 0.36702 0.62308 0.46091-0.18778 0.14511-0.51212 0.40117-0.68283 0.57188-0.13657 0.12803-0.21339 0.29874-0.21339 0.48652 9e-3 0.49505 0.53774 1.0499 1.5022 1.0499 1.1352 0 2.1595-0.81087 2.1595-1.6815 0-0.84501-0.69991-1.0157-1.2547-1.0157-0.28167 0-0.58041 9e-3 -0.91329 9e-3 -0.37556 0-0.5292-0.17071-0.5292-0.32434 0-0.1195 0.13657-0.2646 0.25606-0.34996 0.13657 0.0256 0.29874 0.0427 0.43531 0.0427 0.75112 0 1.5278-0.44384 1.5278-1.3486 0-0.29874-0.10243-0.56334-0.24753-0.75112l0.48652 0.0341c0.12803-0.0683 0.30727-0.30728 0.37556-0.44384zm-2.0912 0.18778c0.46945 0 0.7938 0.46091 0.7938 1.1011 0 0.64869-0.33288 0.99011-0.71698 0.99865-0.46945 0-0.80233-0.46092-0.80233-1.1011 0-0.64016 0.34142-0.99865 0.71698-0.99865zm0.18778 3.6361c0.35849 0 0.60602 0.0171 0.82794 0.11096 0.23046 0.0939 0.37556 0.29874 0.37556 0.58041 0 0.52066-0.4353 0.93036-1.2291 0.93036-0.64016 0-1.1267-0.33288-1.1267-0.79379 0-0.23046 0.15364-0.46092 0.38409-0.6487 0.15364-0.12803 0.34996-0.17924 0.75966-0.17924z"/><path d="m198.52 179.88c-0.23899 0-0.45238 0.20485-0.45238 0.47798 0 0.23899 0.21339 0.45238 0.45238 0.45238 0.25606 0 0.45238-0.21339 0.45238-0.46091 0-0.2646-0.19632-0.46945-0.44385-0.46945zm1.0157 5.5822v-0.25606c-0.55481-0.0512-0.61456-0.10243-0.61456-0.6743v-2.9362c-0.36702 0.15364-0.78526 0.2646-1.2376 0.33288v0.239c0.5292 0.0768 0.54627 0.11096 0.54627 0.64016v1.7242c0 0.58041-0.0598 0.62308-0.60601 0.6743v0.25606z"/><path d="m204.23 185.46v-0.25606c-0.50359-0.0597-0.55481-0.0768-0.55481-0.65723v-1.6303c0-0.82794-0.4353-1.3059-1.1181-1.3059-0.24753 0-0.48652 0.10243-0.72551 0.2646-0.21339 0.13657-0.39263 0.2646-0.56334 0.3841v-0.66577c-0.36703 0.16217-0.78526 0.2646-1.212 0.34142v0.23046c0.46945 0.0768 0.52067 0.10242 0.52067 0.65723v1.7242c0 0.5548-0.0342 0.59748-0.62309 0.65723v0.25606h1.8778v-0.25606c-0.51213-0.0512-0.56334-0.0768-0.56334-0.65723v-1.9717c0.2646-0.23046 0.59748-0.43531 0.9389-0.43531 0.5548 0 0.77672 0.36702 0.77672 0.96451v1.4169c0 0.56334-0.0512 0.63162-0.5548 0.68284v0.25606z"/><path d="m209.03 186.85v-0.27314c-0.92182-0.0768-0.9389-0.10242-0.9389-0.76819v-5.3176c0-0.66577 0.0256-0.69137 0.9389-0.76819v-0.27314h-1.4937v7.4002z"/><path d="m211.62 180.04c-1.2974 0-1.7668 1.5108-1.7668 2.757 0 1.3913 0.46092 2.7655 1.7668 2.7655 1.2888 0 1.7498-1.5193 1.7498-2.7655 0-1.3401-0.46092-2.757-1.7412-2.757zm0 0.31581c0.75112 0 0.97304 1.2291 0.97304 2.4326 0 1.195-0.20485 2.4497-0.9645 2.4497-0.74259 0-0.99865-1.2632-0.99865-2.4497 0-1.1864 0.20485-2.4326 0.98158-2.4326z"/><path d="m214.52 184.32c-0.21339 0-0.43531 0.1451-0.43531 0.37556 0 0.1451 0.0768 0.21339 0.1195 0.22192 0.29874 0.0768 0.54627 0.27314 0.54627 0.58041 0 0.32435-0.24753 0.54627-0.68284 0.72552l0.11096 0.2902c0.55481-0.16217 1.1694-0.53773 1.1694-1.2376 0-0.61455-0.49506-0.95597-0.8194-0.95597z"/><path d="m217.79 180.04c-1.2974 0-1.7668 1.5108-1.7668 2.757 0 1.3913 0.46091 2.7655 1.7668 2.7655 1.2888 0 1.7498-1.5193 1.7498-2.7655 0-1.3401-0.46091-2.757-1.7412-2.757zm0 0.31581c0.75112 0 0.97304 1.2291 0.97304 2.4326 0 1.195-0.20485 2.4497-0.96451 2.4497-0.74258 0-0.99864-1.2632-0.99864-2.4497 0-1.1864 0.20485-2.4326 0.98157-2.4326z"/><path d="m220.69 184.32c-0.21339 0-0.43531 0.1451-0.43531 0.37556 0 0.1451 0.0768 0.21339 0.1195 0.22192 0.29874 0.0768 0.54627 0.27314 0.54627 0.58041 0 0.32435-0.24753 0.54627-0.68284 0.72552l0.11096 0.2902c0.5548-0.16217 1.1694-0.53773 1.1694-1.2376 0-0.61455-0.49506-0.95597-0.81941-0.95597z"/><path d="m223.96 180.04c-1.2974 0-1.7668 1.5108-1.7668 2.757 0 1.3913 0.46091 2.7655 1.7668 2.7655 1.2888 0 1.7498-1.5193 1.7498-2.7655 0-1.3401-0.46091-2.757-1.7412-2.757zm0 0.31581c0.75111 0 0.97304 1.2291 0.97304 2.4326 0 1.195-0.20485 2.4497-0.96451 2.4497-0.74258 0-0.99865-1.2632-0.99865-2.4497 0-1.1864 0.20485-2.4326 0.98158-2.4326z"/><path d="m228.05 186.85v-7.4002h-1.4937v0.27314c0.92183 0.0768 0.9389 0.10242 0.9389 0.76819v5.309c0 0.66576-0.0171 0.69991-0.9389 0.77672v0.27314z"/></g><path d="m180.22 183.63h-7.5926l-18.242-14.692" fill="none" stroke="#808080" stroke-width=".52917"/><ellipse cx="154.23" cy="168.91" rx=".65928" ry=".65928" fill="#808080"/><rect x="182.79" y="122.2" width="48.567" height="12.428" ry="2.3706" fill="#e3e3e6" stroke="#808080" stroke-width=".52917"/><g fill="#f60" stroke-width=".58196" aria-label="target [0,0,1]"><path d="m187.77 130.02-0.0854-0.24752c-0.11096 0.0597-0.31581 0.1451-0.5292 0.1451-0.21338 0-0.49505-0.12803-0.49505-0.80233v-2.1595h0.92182c0.11096-0.0683 0.13657-0.27314 0.0512-0.36703h-0.97304v-1.1608l-0.12804-0.0171-0.56334 0.58041v0.59748h-0.39263l-0.24752 0.2646 0.0427 0.10243h0.59748v2.4582c0 0.68283 0.30728 1.0242 0.85355 1.0242 0.0854 0 0.23046-0.0341 0.38409-0.1195z"/><path d="m191.67 130-0.0939-0.24753c-0.0854 0.0427-0.21338 0.0939-0.31581 0.0939-0.1451 0-0.29874-0.12803-0.29874-0.52066v-1.5705c0-0.44384-0.0854-0.78526-0.3841-1.0413-0.18778-0.15363-0.45237-0.23045-0.71697-0.23045-0.5036 0.11096-1.0499 0.42677-1.2803 0.58894-0.17071 0.1195-0.28167 0.22192-0.28167 0.35849 0 0.20485 0.22192 0.37556 0.38409 0.37556 0.12804 0 0.22193-0.0597 0.2646-0.20485 0.0768-0.24753 0.14511-0.43531 0.25607-0.5548 0.0854-0.10243 0.20485-0.16218 0.37556-0.16218 0.42677 0 0.71697 0.34142 0.71697 0.94744v0.12803c-0.17924 0.1451-0.81086 0.38409-1.3401 0.5548-0.47799 0.16218-0.70844 0.44385-0.70844 0.86208 0 0.55481 0.4353 1.0584 1.0413 1.0584 0.28167 0 0.6743-0.30728 1.0243-0.53773 0.0427 0.13656 0.0939 0.25606 0.21338 0.37556 0.0854 0.0854 0.2646 0.16217 0.39263 0.16217zm-1.3742-0.4097c-0.15363 0.15364-0.46945 0.30728-0.6999 0.30728-0.25607 0-0.59748-0.19632-0.59748-0.64016 0-0.30728 0.18778-0.46945 0.52066-0.62309 0.17924-0.0768 0.58894-0.25606 0.77672-0.34995z"/><path d="m193.23 127.4v-0.93036c-0.4097 0.1707-0.7938 0.27313-1.2291 0.34141v0.23046c0.50359 0.0597 0.53773 0.0939 0.53773 0.6487v1.7412c0 0.5548-0.0598 0.59748-0.60602 0.64869v0.25606h2.0058v-0.25606c-0.66576-0.0512-0.70844-0.0939-0.70844-0.65723v-1.5022c0.17925-0.48652 0.46945-0.75112 0.69991-0.75112 0.13657 0 0.23899 0.0512 0.36702 0.17071 0.0512 0.0597 0.12803 0.0683 0.22192 0.0256 0.17925-0.0768 0.28167-0.25607 0.28167-0.43531 0-0.21339-0.20485-0.44384-0.50359-0.44384-0.41823 0-0.77672 0.46091-1.0499 0.91329z"/><path d="m198.86 126.59c-0.34142 0.0512-0.76819 0.10243-1.1779 0.1195-0.25607-0.1451-0.54627-0.22192-0.83648-0.22192h-9e-3c-0.65723 0-1.5449 0.45238-1.5449 1.4169 0 0.58895 0.36702 0.97304 0.73405 1.1352-0.13657 0.16217-0.40117 0.40116-0.74259 0.52919-9e-3 0.0768 0.0171 0.23046 0.0939 0.35849 0.11097 0.17925 0.33289 0.36703 0.62309 0.46092-0.18778 0.1451-0.51212 0.40116-0.68283 0.57187-0.13657 0.12803-0.21339 0.29874-0.21339 0.48652 9e-3 0.49506 0.53773 1.0499 1.5022 1.0499 1.1352 0 2.1595-0.81086 2.1595-1.6815 0-0.84501-0.69991-1.0157-1.2547-1.0157-0.28167 0-0.58041 9e-3 -0.9133 9e-3 -0.37556 0-0.52919-0.17071-0.52919-0.32435 0-0.1195 0.13656-0.2646 0.25606-0.34995 0.13657 0.0256 0.29874 0.0427 0.43531 0.0427 0.75112 0 1.5278-0.44384 1.5278-1.3486 0-0.29874-0.10242-0.56334-0.24752-0.75112l0.48652 0.0341c0.12803-0.0683 0.30727-0.30727 0.37556-0.44384zm-2.0912 0.18778c0.46945 0 0.7938 0.46092 0.7938 1.1011 0 0.64869-0.33288 0.99011-0.71698 0.99864-0.46945 0-0.80233-0.46091-0.80233-1.1011s0.34142-0.99865 0.71698-0.99865zm0.18778 3.6361c0.35849 0 0.60602 0.0171 0.82794 0.11096 0.23046 0.0939 0.37556 0.29875 0.37556 0.58042 0 0.52066-0.43531 0.93036-1.2291 0.93036-0.64016 0-1.1267-0.33288-1.1267-0.7938 0-0.23045 0.15364-0.46091 0.38409-0.64869 0.15364-0.12803 0.34996-0.17925 0.75966-0.17925z"/><path d="m202.13 129.41c-0.30727 0.28167-0.63162 0.42677-0.99011 0.42677-0.59748 0-1.2462-0.46945-1.2632-1.5876 1.0243-0.0341 2.1083-0.1195 2.2534-0.1451 0.16218-0.0341 0.19632-0.11096 0.19632-0.29021 0-0.68283-0.58895-1.323-1.3059-1.323h-9e-3c-0.44385 0-0.90476 0.23045-1.2632 0.62308-0.34142 0.37556-0.56334 0.90476-0.56334 1.4937 0 0.97304 0.62309 1.8351 1.673 1.8351 0.28167 0 0.87062-0.1451 1.4254-0.8194zm-1.3059-2.5777c0.45238 0 0.75112 0.39264 0.75112 0.83648 0 0.12803-0.0512 0.17071-0.21339 0.17071-0.49505 0.0171-0.97304 0.0256-1.4425 0.0256 0.13657-0.68283 0.51213-1.0328 0.89622-1.0328z"/><path d="m205.12 130.02-0.0854-0.24752c-0.11096 0.0597-0.31581 0.1451-0.5292 0.1451-0.21338 0-0.49505-0.12803-0.49505-0.80233v-2.1595h0.92183c0.11096-0.0683 0.13656-0.27314 0.0512-0.36703h-0.97304v-1.1608l-0.12803-0.0171-0.56334 0.58041v0.59748h-0.39263l-0.24753 0.2646 0.0427 0.10243h0.59748v2.4582c0 0.68283 0.30727 1.0242 0.85354 1.0242 0.0854 0 0.23046-0.0341 0.3841-0.1195z"/><path d="m209.79 131.73v-0.27313c-0.92183-0.0768-0.9389-0.10243-0.9389-0.76819v-5.3176c0-0.66576 0.0256-0.69137 0.9389-0.76819v-0.27313h-1.4937v7.4002z"/><path d="m212.39 124.92c-1.2974 0-1.7668 1.5108-1.7668 2.757 0 1.3913 0.46091 2.7655 1.7668 2.7655 1.2888 0 1.7498-1.5193 1.7498-2.7655 0-1.3401-0.46092-2.757-1.7412-2.757zm0 0.31582c0.75112 0 0.97304 1.2291 0.97304 2.4326 0 1.195-0.20485 2.4497-0.96451 2.4497-0.74258 0-0.99864-1.2632-0.99864-2.4497s0.20485-2.4326 0.98157-2.4326z"/><path d="m215.28 129.19c-0.21339 0-0.43531 0.14511-0.43531 0.37556 0 0.14511 0.0768 0.21339 0.1195 0.22193 0.29874 0.0768 0.54626 0.27313 0.54626 0.58041 0 0.32434-0.24752 0.54627-0.68283 0.72551l0.11096 0.29021c0.5548-0.16218 1.1694-0.53774 1.1694-1.2376 0-0.61455-0.49506-0.95597-0.81941-0.95597z"/><path d="m218.56 124.92c-1.2974 0-1.7668 1.5108-1.7668 2.757 0 1.3913 0.46091 2.7655 1.7668 2.7655 1.2888 0 1.7498-1.5193 1.7498-2.7655 0-1.3401-0.46091-2.757-1.7412-2.757zm0 0.31582c0.75112 0 0.97304 1.2291 0.97304 2.4326 0 1.195-0.20485 2.4497-0.96451 2.4497-0.74258 0-0.99865-1.2632-0.99865-2.4497s0.20485-2.4326 0.98158-2.4326z"/><path d="m221.45 129.19c-0.21338 0-0.4353 0.14511-0.4353 0.37556 0 0.14511 0.0768 0.21339 0.11949 0.22193 0.29874 0.0768 0.54627 0.27313 0.54627 0.58041 0 0.32434-0.24753 0.54627-0.68283 0.72551l0.11096 0.29021c0.5548-0.16218 1.1694-0.53774 1.1694-1.2376 0-0.61455-0.49505-0.95597-0.8194-0.95597z"/><path d="m225.96 130.34v-0.27313c-0.78526-0.0512-0.83647-0.1195-0.83647-0.73405v-4.4128c-0.48652 0.18778-0.99011 0.34142-1.5534 0.44385v0.23045l0.44384 0.0171c0.35849 0.0171 0.39263 0.0597 0.39263 0.48652v3.2349c0 0.61455-0.0512 0.68284-0.82794 0.73405v0.27313z"/><path d="m228.82 131.73v-7.4002h-1.4937v0.27313c0.92183 0.0768 0.9389 0.10243 0.9389 0.76819v5.309c0 0.66577-0.0171 0.69991-0.9389 0.77673v0.27313z"/></g><path d="m182.6 128.47h-7.5926l-19.82 2.2679" fill="none" stroke="#808080" stroke-width=".52917"/><ellipse cx="154.84" cy="130.81" rx=".65928" ry=".65928" fill="#808080"/><rect x="192.85" y="149.76" width="38.509" height="12.428" ry="2.3706" fill="#e3e3e6" stroke="#808080" stroke-width=".52917"/><g fill="#f60" stroke-width=".58196" aria-label="up [0,1,0] "><path d="m199.62 157.52-0.24753-9e-3c-0.32435-0.0171-0.40117-0.0683-0.40117-0.50359v-2.8338c-0.11949 0.0256-0.32434 0.0598-0.57187 0.0854-0.25607 0.0256-0.56334 0.0427-0.7938 0.0512v0.23899l0.31581 0.0512c0.28167 0.0427 0.35849 0.0854 0.35849 0.55481v1.9546c-0.29874 0.28167-0.60601 0.4097-0.92183 0.4097-0.38409 0-0.75965-0.20485-0.75965-0.95597v-1.1438c0-0.5292 0-0.96451 0.0256-1.2462-0.13656 0.0256-0.37555 0.0598-0.60601 0.0939-0.23899 0.0171-0.46092 0.0341-0.6487 0.0427v0.23899l0.25607 0.0512c0.20485 0.0427 0.28167 0.0939 0.28167 0.55481v1.6217c0 0.94744 0.49505 1.3059 1.0755 1.3059 0.239 0 0.40971-0.0683 0.65723-0.21339 0.24753-0.13656 0.43531-0.2902 0.64016-0.44384v0.60602l0.0512 0.0512c0.17071-0.0512 0.3841-0.11096 0.61456-0.17071 0.23899-0.0597 0.47798-0.11096 0.6743-0.13657z"/><path d="m201.12 154.72v-0.6743c-0.40971 0.15364-0.89623 0.30728-1.2632 0.36703v0.23899c0.53773 0.0598 0.57187 0.0768 0.57187 0.62309v3.7897c0 0.5548-0.0683 0.60601-0.63162 0.65722v0.2646h2.057v-0.2646c-0.6743-0.0512-0.73404-0.10242-0.73404-0.71697v-1.084c0.11949 0.0683 0.34141 0.14511 0.59748 0.16218 1.1267-0.20485 2.1509-1.0243 2.1509-2.3302 0-0.85354-0.58041-1.6217-1.5278-1.6217-0.11096 0-0.28166 0.0512-0.42677 0.12803zm0 0.31581c0.23045-0.17071 0.59748-0.36702 0.86208-0.36702 0.61455 0 1.1523 0.49505 1.1523 1.4169 0 0.9389-0.48652 1.5535-1.2206 1.5535-0.2902 0-0.60601-0.13657-0.79379-0.33289z"/><path d="m208.78 159.37v-0.27313c-0.92183-0.0768-0.9389-0.10243-0.9389-0.76819v-5.3176c0-0.66576 0.0256-0.69137 0.9389-0.76819v-0.27313h-1.4937v7.4002z"/><path d="m211.37 152.56c-1.2974 0-1.7668 1.5108-1.7668 2.757 0 1.3913 0.46091 2.7655 1.7668 2.7655 1.2888 0 1.7498-1.5193 1.7498-2.7655 0-1.3401-0.46091-2.757-1.7412-2.757zm0 0.31581c0.75112 0 0.97304 1.2291 0.97304 2.4326 0 1.195-0.20485 2.4497-0.96451 2.4497-0.74258 0-0.99865-1.2632-0.99865-2.4497 0-1.1864 0.20485-2.4326 0.98158-2.4326z"/><path d="m214.27 156.83c-0.21338 0-0.4353 0.14511-0.4353 0.37556 0 0.14511 0.0768 0.21339 0.11949 0.22192 0.29874 0.0768 0.54627 0.27314 0.54627 0.58041 0 0.32435-0.24753 0.54627-0.68284 0.72552l0.11097 0.2902c0.5548-0.16217 1.1694-0.53773 1.1694-1.2376 0-0.61455-0.49505-0.95597-0.8194-0.95597z"/><path d="m218.78 157.98v-0.27313c-0.78526-0.0512-0.83647-0.1195-0.83647-0.73405v-4.4128c-0.48652 0.18778-0.99011 0.34142-1.5534 0.44385v0.23045l0.44384 0.0171c0.35849 0.0171 0.39263 0.0598 0.39263 0.48652v3.2349c0 0.61455-0.0512 0.68284-0.82794 0.73405v0.27313z"/><path d="m220.44 156.83c-0.21339 0-0.43531 0.14511-0.43531 0.37556 0 0.14511 0.0768 0.21339 0.1195 0.22192 0.29874 0.0768 0.54627 0.27314 0.54627 0.58041 0 0.32435-0.24753 0.54627-0.68284 0.72552l0.11096 0.2902c0.55481-0.16217 1.1694-0.53773 1.1694-1.2376 0-0.61455-0.49506-0.95597-0.8194-0.95597z"/><path d="m223.71 152.56c-1.2974 0-1.7668 1.5108-1.7668 2.757 0 1.3913 0.46091 2.7655 1.7668 2.7655 1.2888 0 1.7498-1.5193 1.7498-2.7655 0-1.3401-0.46092-2.757-1.7412-2.757zm0 0.31581c0.75112 0 0.97304 1.2291 0.97304 2.4326 0 1.195-0.20485 2.4497-0.96451 2.4497-0.74258 0-0.99864-1.2632-0.99864-2.4497 0-1.1864 0.20485-2.4326 0.98157-2.4326z"/><path d="m227.8 159.37v-7.4002h-1.4937v0.27313c0.92182 0.0768 0.9389 0.10243 0.9389 0.76819v5.309c0 0.66577-0.0171 0.69991-0.9389 0.77673v0.27313z"/></g><path d="m192.7 156.08h-7.5926l-13.37 0.0743" fill="none" stroke="#808080" stroke-width=".52917"/><ellipse cx="171.27" cy="156.24" rx=".659" ry=".65928" fill="#808080"/><g transform="matrix(1.2661 0 0 1.2661 -16.654 -78.884)" stroke-width=".26458"><path class="cls-11" d="m125.35 172.37a0.6985 0.6985 0 0 0-0.72496 0.30692 0.84667 0.84667 0 0 0-0.0529 0.56621 0.69321 0.69321 0 0 0-0.79375 0 0.82815 0.82815 0 0 0-0.28046 0.49477 0.69585 0.69585 0 0 0-0.71174-0.33338 0.83344 0.83344 0 0 0-0.45508 0.33867 0.69321 0.69321 0 0 0-0.49742-0.57944 0.83344 0.83344 0 0 0-0.55298 0.12436 0.6985 0.6985 0 0 0-0.23019-0.75142 0.81227 0.81227 0 0 0-0.55562-0.11112 0.69321 0.69321 0 0 0 0.0952-0.78053 0.84137 0.84137 0 0 0-0.48154-0.33337 0.6985 0.6985 0 0 0 0.40481-0.67469 0.82285 0.82285 0 0 0-0.2884-0.48948 0.69321 0.69321 0 0 0 0.64294-0.45243 0.83873 0.83873 0 0 0-0.0661-0.56357 0.69321 0.69321 0 0 0 0.76994-0.15081 0.83608 0.83608 0 0 0 0.17198-0.5424 0.69321 0.69321 0 0 0 0.76465 0.17463v-0.0159a0.86254 0.86254 0 0 0 0.36248-0.41539 0.71437 0.71437 0 0 0 0.61647 0.48419 1.0345 1.0345 0 0 0 0.52917-0.23548 0.69321 0.69321 0 0 0 0.37571 0.68791 0.83344 0.83344 0 0 0 0.56885 0 0.69321 0.69321 0 0 0 0.0661 0.79375 0.83079 0.83079 0 0 0 0.52917 0.22755 0.69585 0.69585 0 0 0-0.26459 0.74347 0.83079 0.83079 0 0 0 0.38365 0.41805 0.69321 0.69321 0 0 0-0.52917 0.57414 0.82285 0.82285 0 0 0 0.20373 0.49477z" fill="#500"/><path class="cls-7" d="m125.89 171.33 0.26458-0.0291-0.26458-0.0873s-0.52917-0.1905-0.49477-0.62177a0.79375 0.79375 0 0 1 0.37042-0.50271l0.23547-0.13494-0.26458 0.0238s-0.5715 0.045-0.70644-0.36778a0.76729 0.76729 0 0 1 0.1323-0.61118l0.16139-0.21696-0.23812 0.12964s-0.50536 0.26459-0.79375-0.0476a0.74877 0.74877 0 0 1-0.127-0.60854l0.0582-0.26459-0.16404 0.21696s-0.34925 0.45509-0.74612 0.28046a0.81227 0.81227 0 0 1-0.381-0.51329l-0.045-0.26458-0.0397 0.26458s-0.14817 0.55562-0.55562 0.55562a0.95779 0.95779 0 0 1-0.52917-0.31485l-0.17198-0.2196 0.0423 0.26458s0.10319 0.56356-0.29368 0.74083a0.76729 0.76729 0 0 1-0.62177-0.0688l-0.23548-0.13758 0.1561 0.22225s0.32808 0.4736 0.037 0.79375a0.77523 0.77523 0 0 1-0.59266 0.1905l-0.26459-0.0318 0.23548 0.14023s0.48948 0.29898 0.35454 0.71437a0.75671 0.75671 0 0 1-0.46566 0.4154l-0.26459 0.0847 0.26459 0.0317s0.56885 0.0741 0.61383 0.508a0.76729 0.76729 0 0 1-0.26458 0.56886l-0.20373 0.18256 0.26458-0.0794s0.55033-0.16405 0.76729 0.21166a0.77523 0.77523 0 0 1 0 0.62442l-0.11112 0.24606 0.20637-0.17727s0.43392-0.37306 0.79375-0.11906a0.77258 0.77258 0 0 1 0.25136 0.5715v0.26458l0.11641-0.24871s0.24342-0.52916 0.6694-0.42862a0.75406 0.75406 0 0 1 0.46037 0.42069l0.11113 0.2487v-0.26458s0.0132-0.57414 0.43921-0.6641a0.75935 0.75935 0 0 1 0.59266 0.19579l0.20109 0.18256-0.10584-0.25135s-0.2196-0.52917 0.1323-0.79375a0.77258 0.77258 0 0 1 0.62177-0.0635l0.26458 0.0847-0.20108-0.1852s-0.4154-0.39159-0.19844-0.76994a0.762 0.762 0 0 1 0.52652-0.29104zm-0.52917 1.0345a0.6985 0.6985 0 0 0-0.72496 0.30691 0.84667 0.84667 0 0 0-0.0529 0.56621 0.69321 0.69321 0 0 0-0.79375 0 0.82815 0.82815 0 0 0-0.28046 0.49477 0.69585 0.69585 0 0 0-0.71173-0.33337 0.83344 0.83344 0 0 0-0.45508 0.33866 0.69321 0.69321 0 0 0-0.50271-0.57679 0.83344 0.83344 0 0 0-0.55298 0.12436 0.6985 0.6985 0 0 0-0.23019-0.75142 0.81227 0.81227 0 0 0-0.55562-0.11112 0.69321 0.69321 0 0 0 0.0952-0.78053 0.84137 0.84137 0 0 0-0.48154-0.33337 0.6985 0.6985 0 0 0 0.40481-0.67469 0.82285 0.82285 0 0 0-0.2884-0.48948 0.69321 0.69321 0 0 0 0.64294-0.45243 0.83873 0.83873 0 0 0-0.0661-0.56357 0.69321 0.69321 0 0 0 0.76994-0.15081 0.83608 0.83608 0 0 0 0.17198-0.5424 0.69321 0.69321 0 0 0 0.76465 0.17463v-0.0159a0.86254 0.86254 0 0 0 0.36248-0.41539 0.71437 0.71437 0 0 0 0.61647 0.48419 1.0345 1.0345 0 0 0 0.52917-0.23548 0.69321 0.69321 0 0 0 0.37571 0.68791 0.83344 0.83344 0 0 0 0.56885 0 0.69321 0.69321 0 0 0 0.0661 0.79375 0.83079 0.83079 0 0 0 0.52917 0.22755 0.69585 0.69585 0 0 0-0.26459 0.74347 0.83079 0.83079 0 0 0 0.38365 0.41805 0.69321 0.69321 0 0 0-0.52917 0.57414 0.82285 0.82285 0 0 0 0.20373 0.49477z" fill="#010101"/><path class="cls-12" d="m125.05 170.99a2.1484 2.1484 0 1 1-2.1458-2.1484 2.1458 2.1458 0 0 1 2.1458 2.1484z" fill="#f55"/></g><g transform="matrix(1.2661 0 0 1.2661 -33.352 -68.84)" stroke-width=".26458"><path class="cls-11" d="m125.35 172.37a0.6985 0.6985 0 0 0-0.72496 0.30692 0.84667 0.84667 0 0 0-0.0529 0.56621 0.69321 0.69321 0 0 0-0.79375 0 0.82815 0.82815 0 0 0-0.28046 0.49477 0.69585 0.69585 0 0 0-0.71174-0.33338 0.83344 0.83344 0 0 0-0.45508 0.33867 0.69321 0.69321 0 0 0-0.49742-0.57944 0.83344 0.83344 0 0 0-0.55298 0.12436 0.6985 0.6985 0 0 0-0.23019-0.75142 0.81227 0.81227 0 0 0-0.55562-0.11112 0.69321 0.69321 0 0 0 0.0952-0.78053 0.84137 0.84137 0 0 0-0.48154-0.33337 0.6985 0.6985 0 0 0 0.40481-0.67469 0.82285 0.82285 0 0 0-0.2884-0.48948 0.69321 0.69321 0 0 0 0.64294-0.45243 0.83873 0.83873 0 0 0-0.0661-0.56357 0.69321 0.69321 0 0 0 0.76994-0.15081 0.83608 0.83608 0 0 0 0.17198-0.5424 0.69321 0.69321 0 0 0 0.76465 0.17463v-0.0159a0.86254 0.86254 0 0 0 0.36248-0.41539 0.71437 0.71437 0 0 0 0.61647 0.48419 1.0345 1.0345 0 0 0 0.52917-0.23548 0.69321 0.69321 0 0 0 0.37571 0.68791 0.83344 0.83344 0 0 0 0.56885 0 0.69321 0.69321 0 0 0 0.0661 0.79375 0.83079 0.83079 0 0 0 0.52917 0.22755 0.69585 0.69585 0 0 0-0.26459 0.74347 0.83079 0.83079 0 0 0 0.38365 0.41805 0.69321 0.69321 0 0 0-0.52917 0.57414 0.82285 0.82285 0 0 0 0.20373 0.49477z" fill="#447821"/><path class="cls-7" d="m125.89 171.33 0.26458-0.0291-0.26458-0.0873s-0.52917-0.1905-0.49477-0.62177a0.79375 0.79375 0 0 1 0.37042-0.50271l0.23547-0.13494-0.26458 0.0238s-0.5715 0.045-0.70644-0.36778a0.76729 0.76729 0 0 1 0.1323-0.61118l0.16139-0.21696-0.23812 0.12964s-0.50536 0.26459-0.79375-0.0476a0.74877 0.74877 0 0 1-0.127-0.60854l0.0582-0.26459-0.16404 0.21696s-0.34925 0.45509-0.74612 0.28046a0.81227 0.81227 0 0 1-0.381-0.51329l-0.045-0.26458-0.0397 0.26458s-0.14817 0.55562-0.55562 0.55562a0.95779 0.95779 0 0 1-0.52917-0.31485l-0.17198-0.2196 0.0423 0.26458s0.10319 0.56356-0.29368 0.74083a0.76729 0.76729 0 0 1-0.62177-0.0688l-0.23548-0.13758 0.1561 0.22225s0.32808 0.4736 0.037 0.79375a0.77523 0.77523 0 0 1-0.59266 0.1905l-0.26459-0.0318 0.23548 0.14023s0.48948 0.29898 0.35454 0.71437a0.75671 0.75671 0 0 1-0.46566 0.4154l-0.26459 0.0847 0.26459 0.0317s0.56885 0.0741 0.61383 0.508a0.76729 0.76729 0 0 1-0.26458 0.56886l-0.20373 0.18256 0.26458-0.0794s0.55033-0.16405 0.76729 0.21166a0.77523 0.77523 0 0 1 0 0.62442l-0.11112 0.24606 0.20637-0.17727s0.43392-0.37306 0.79375-0.11906a0.77258 0.77258 0 0 1 0.25136 0.5715v0.26458l0.11641-0.24871s0.24342-0.52916 0.6694-0.42862a0.75406 0.75406 0 0 1 0.46037 0.42069l0.11113 0.2487v-0.26458s0.0132-0.57414 0.43921-0.6641a0.75935 0.75935 0 0 1 0.59266 0.19579l0.20109 0.18256-0.10584-0.25135s-0.2196-0.52917 0.1323-0.79375a0.77258 0.77258 0 0 1 0.62177-0.0635l0.26458 0.0847-0.20108-0.1852s-0.4154-0.39159-0.19844-0.76994a0.762 0.762 0 0 1 0.52652-0.29104zm-0.52917 1.0345a0.6985 0.6985 0 0 0-0.72496 0.30691 0.84667 0.84667 0 0 0-0.0529 0.56621 0.69321 0.69321 0 0 0-0.79375 0 0.82815 0.82815 0 0 0-0.28046 0.49477 0.69585 0.69585 0 0 0-0.71173-0.33337 0.83344 0.83344 0 0 0-0.45508 0.33866 0.69321 0.69321 0 0 0-0.50271-0.57679 0.83344 0.83344 0 0 0-0.55298 0.12436 0.6985 0.6985 0 0 0-0.23019-0.75142 0.81227 0.81227 0 0 0-0.55562-0.11112 0.69321 0.69321 0 0 0 0.0952-0.78053 0.84137 0.84137 0 0 0-0.48154-0.33337 0.6985 0.6985 0 0 0 0.40481-0.67469 0.82285 0.82285 0 0 0-0.2884-0.48948 0.69321 0.69321 0 0 0 0.64294-0.45243 0.83873 0.83873 0 0 0-0.0661-0.56357 0.69321 0.69321 0 0 0 0.76994-0.15081 0.83608 0.83608 0 0 0 0.17198-0.5424 0.69321 0.69321 0 0 0 0.76465 0.17463v-0.0159a0.86254 0.86254 0 0 0 0.36248-0.41539 0.71437 0.71437 0 0 0 0.61647 0.48419 1.0345 1.0345 0 0 0 0.52917-0.23548 0.69321 0.69321 0 0 0 0.37571 0.68791 0.83344 0.83344 0 0 0 0.56885 0 0.69321 0.69321 0 0 0 0.0661 0.79375 0.83079 0.83079 0 0 0 0.52917 0.22755 0.69585 0.69585 0 0 0-0.26459 0.74347 0.83079 0.83079 0 0 0 0.38365 0.41805 0.69321 0.69321 0 0 0-0.52917 0.57414 0.82285 0.82285 0 0 0 0.20373 0.49477z" fill="#010101"/><path class="cls-12" d="m125.05 170.99a2.1484 2.1484 0 1 1-2.1458-2.1484 2.1458 2.1458 0 0 1 2.1458 2.1484z" fill="#aade87"/></g><g transform="matrix(1.2661 0 0 1.2661 -18.399 -59.024)" stroke-width=".26458"><path class="cls-11" d="m125.35 172.37a0.6985 0.6985 0 0 0-0.72496 0.30692 0.84667 0.84667 0 0 0-0.0529 0.56621 0.69321 0.69321 0 0 0-0.79375 0 0.82815 0.82815 0 0 0-0.28046 0.49477 0.69585 0.69585 0 0 0-0.71174-0.33338 0.83344 0.83344 0 0 0-0.45508 0.33867 0.69321 0.69321 0 0 0-0.49742-0.57944 0.83344 0.83344 0 0 0-0.55298 0.12436 0.6985 0.6985 0 0 0-0.23019-0.75142 0.81227 0.81227 0 0 0-0.55562-0.11112 0.69321 0.69321 0 0 0 0.0952-0.78053 0.84137 0.84137 0 0 0-0.48154-0.33337 0.6985 0.6985 0 0 0 0.40481-0.67469 0.82285 0.82285 0 0 0-0.2884-0.48948 0.69321 0.69321 0 0 0 0.64294-0.45243 0.83873 0.83873 0 0 0-0.0661-0.56357 0.69321 0.69321 0 0 0 0.76994-0.15081 0.83608 0.83608 0 0 0 0.17198-0.5424 0.69321 0.69321 0 0 0 0.76465 0.17463v-0.0159a0.86254 0.86254 0 0 0 0.36248-0.41539 0.71437 0.71437 0 0 0 0.61647 0.48419 1.0345 1.0345 0 0 0 0.52917-0.23548 0.69321 0.69321 0 0 0 0.37571 0.68791 0.83344 0.83344 0 0 0 0.56885 0 0.69321 0.69321 0 0 0 0.0661 0.79375 0.83079 0.83079 0 0 0 0.52917 0.22755 0.69585 0.69585 0 0 0-0.26459 0.74347 0.83079 0.83079 0 0 0 0.38365 0.41805 0.69321 0.69321 0 0 0-0.52917 0.57414 0.82285 0.82285 0 0 0 0.20373 0.49477z" fill="#214478"/><path class="cls-7" d="m125.89 171.33 0.26458-0.0291-0.26458-0.0873s-0.52917-0.1905-0.49477-0.62177a0.79375 0.79375 0 0 1 0.37042-0.50271l0.23547-0.13494-0.26458 0.0238s-0.5715 0.045-0.70644-0.36778a0.76729 0.76729 0 0 1 0.1323-0.61118l0.16139-0.21696-0.23812 0.12964s-0.50536 0.26459-0.79375-0.0476a0.74877 0.74877 0 0 1-0.127-0.60854l0.0582-0.26459-0.16404 0.21696s-0.34925 0.45509-0.74612 0.28046a0.81227 0.81227 0 0 1-0.381-0.51329l-0.045-0.26458-0.0397 0.26458s-0.14817 0.55562-0.55562 0.55562a0.95779 0.95779 0 0 1-0.52917-0.31485l-0.17198-0.2196 0.0423 0.26458s0.10319 0.56356-0.29368 0.74083a0.76729 0.76729 0 0 1-0.62177-0.0688l-0.23548-0.13758 0.1561 0.22225s0.32808 0.4736 0.037 0.79375a0.77523 0.77523 0 0 1-0.59266 0.1905l-0.26459-0.0318 0.23548 0.14023s0.48948 0.29898 0.35454 0.71437a0.75671 0.75671 0 0 1-0.46566 0.4154l-0.26459 0.0847 0.26459 0.0317s0.56885 0.0741 0.61383 0.508a0.76729 0.76729 0 0 1-0.26458 0.56886l-0.20373 0.18256 0.26458-0.0794s0.55033-0.16405 0.76729 0.21166a0.77523 0.77523 0 0 1 0 0.62442l-0.11112 0.24606 0.20637-0.17727s0.43392-0.37306 0.79375-0.11906a0.77258 0.77258 0 0 1 0.25136 0.5715v0.26458l0.11641-0.24871s0.24342-0.52916 0.6694-0.42862a0.75406 0.75406 0 0 1 0.46037 0.42069l0.11113 0.2487v-0.26458s0.0132-0.57414 0.43921-0.6641a0.75935 0.75935 0 0 1 0.59266 0.19579l0.20109 0.18256-0.10584-0.25135s-0.2196-0.52917 0.1323-0.79375a0.77258 0.77258 0 0 1 0.62177-0.0635l0.26458 0.0847-0.20108-0.1852s-0.4154-0.39159-0.19844-0.76994a0.762 0.762 0 0 1 0.52652-0.29104zm-0.52917 1.0345a0.6985 0.6985 0 0 0-0.72496 0.30691 0.84667 0.84667 0 0 0-0.0529 0.56621 0.69321 0.69321 0 0 0-0.79375 0 0.82815 0.82815 0 0 0-0.28046 0.49477 0.69585 0.69585 0 0 0-0.71173-0.33337 0.83344 0.83344 0 0 0-0.45508 0.33866 0.69321 0.69321 0 0 0-0.50271-0.57679 0.83344 0.83344 0 0 0-0.55298 0.12436 0.6985 0.6985 0 0 0-0.23019-0.75142 0.81227 0.81227 0 0 0-0.55562-0.11112 0.69321 0.69321 0 0 0 0.0952-0.78053 0.84137 0.84137 0 0 0-0.48154-0.33337 0.6985 0.6985 0 0 0 0.40481-0.67469 0.82285 0.82285 0 0 0-0.2884-0.48948 0.69321 0.69321 0 0 0 0.64294-0.45243 0.83873 0.83873 0 0 0-0.0661-0.56357 0.69321 0.69321 0 0 0 0.76994-0.15081 0.83608 0.83608 0 0 0 0.17198-0.5424 0.69321 0.69321 0 0 0 0.76465 0.17463v-0.0159a0.86254 0.86254 0 0 0 0.36248-0.41539 0.71437 0.71437 0 0 0 0.61647 0.48419 1.0345 1.0345 0 0 0 0.52917-0.23548 0.69321 0.69321 0 0 0 0.37571 0.68791 0.83344 0.83344 0 0 0 0.56885 0 0.69321 0.69321 0 0 0 0.0661 0.79375 0.83079 0.83079 0 0 0 0.52917 0.22755 0.69585 0.69585 0 0 0-0.26459 0.74347 0.83079 0.83079 0 0 0 0.38365 0.41805 0.69321 0.69321 0 0 0-0.52917 0.57414 0.82285 0.82285 0 0 0 0.20373 0.49477z" fill="#010101"/><path class="cls-12" d="m125.05 170.99a2.1484 2.1484 0 1 1-2.1458-2.1484 2.1458 2.1458 0 0 1 2.1458 2.1484z" fill="#afc6e9"/></g></g></svg>
