<?xml version="1.0" encoding="UTF-8"?>
<!-- Created with Inkscape (http://www.inkscape.org/) -->
<svg width="349.92" height="238.98" version="1.1" viewBox="0 0 92.583 63.23" xmlns="http://www.w3.org/2000/svg"><g transform="translate(-91.399 -124.08)"><g><path d="m127.45 170.31 28.78 15.381 23.855-20.965-26.203-10.318z" fill="#afafde" fill-rule="evenodd" stroke="#000" stroke-linejoin="round" stroke-width=".58196"/><path d="m141.96 162.07v-17.617" fill="none" stroke="#800000" stroke-dasharray="0.436927, 0.436927" stroke-width=".43693"/><path d="m141.96 162.07 9.6017 4.7722" fill="none" stroke="#800000" stroke-dasharray="0.436927, 0.436927" stroke-width=".43693"/></g><path d="m141.96 144.45 9.6017 22.389" color="#000000" fill="#800000" stroke-width=".43693px" style="-inkscape-stroke:none"/><path d="m142.16 144.37-0.40039 0.17188 9.6016 22.389 0.4004-0.17188z" color="#000000" fill="#800000" style="-inkscape-stroke:none"/><g fill="#800000" fill-rule="evenodd"><path d="m151.35 166.36-0.57377-0.22934 1.0043 1.2332-0.20119-1.5777z" color="#000000" stroke-width=".087385pt" style="-inkscape-stroke:none"/><path d="m151.61 165.56-0.29102 0.72852-0.72851-0.29102 1.2754 1.5664zm-0.0586 0.45898 0.14844 1.1562-0.73633-0.90234 0.41993 0.16797 0.0215-0.0547z" color="#000000" style="-inkscape-stroke:none"/></g><path d="m127.4 170.37v-18.969" fill="none" stroke="#008000" stroke-dasharray="0.470467, 0.470467" stroke-width=".47047"/><path d="m127.4 170.37 21.533-1.6423" fill="none" stroke="#008000" stroke-dasharray="0.470467, 0.470467" stroke-width=".47047"/><path d="m127.4 151.4 21.533 17.327" color="#000000" fill="#008000" stroke-width=".47047" style="-inkscape-stroke:none"/><path d="m127.54 151.22-0.29492 0.36718 21.533 17.326 0.29492-0.36524z" color="#000000" fill="#008000" style="-inkscape-stroke:none"/><g fill="#008000" fill-rule="evenodd"><path d="m148.49 168.37-0.66148 0.0716 1.5778 0.66576-0.98794-1.3988z" color="#000000" stroke-width=".094093pt" style="-inkscape-stroke:none"/><path d="m148.33 167.48 0.0898 0.83984-0.83789 0.0898 2.0039 0.84571zm0.17773 0.46875 0.72071 1.0195-1.1504-0.48438 0.48243-0.0527-8e-3 -0.0625z" color="#000000" style="-inkscape-stroke:none"/></g><path d="m142.04 177.59v-16.375" fill="none" stroke="#000080" stroke-dasharray="0.40614, 0.40614" stroke-width=".40614"/><path d="m142.04 177.59 8.3483-6.4496" fill="none" stroke="#000080" stroke-dasharray="0.40614, 0.40614" stroke-width=".40614"/><path d="m142.04 161.22 8.3483 9.9258" color="#000000" fill="#000080" stroke-width=".40614px" style="-inkscape-stroke:none"/><path d="m142.2 161.09-0.3125 0.26172 8.3496 9.9258 0.31055-0.26172z" color="#000000" fill="#000080" style="-inkscape-stroke:none"/><g fill="#000080" fill-rule="evenodd"><path d="m150.07 170.77-0.57224-0.0494 1.2258 0.82645-0.60416-1.3493z" color="#000000" stroke-width=".081228pt" style="-inkscape-stroke:none"/><path d="m150.09 169.99-0.0644 0.72656-0.72657-0.0625 1.5566 1.0488zm0.0723 0.42383 0.4414 0.98828-0.89844-0.60547 0.41993 0.0371 4e-3 -0.0547z" color="#000000" style="-inkscape-stroke:none"/></g><path d="m153.8 132.7v35.58h0.58203v-35.58z" color="#000000" style="-inkscape-stroke:none"/><g fill-rule="evenodd"><path d="m154.09 135.03 1.1639 1.1639-1.1639-4.0737-1.1639 4.0737z" color="#000000" stroke-width=".23278pt" style="-inkscape-stroke:none"/><path d="m154.09 131.55-1.4785 5.1719 1.4785-1.4766 1.4766 1.4766zm0 1.1328 0.84961 2.9727-0.84961-0.84961-0.85156 0.85156z" color="#000000" style="-inkscape-stroke:none"/></g><path d="m171.4 154.97-17.484 13.074 0.34961 0.46679 17.482-13.076z" color="#000000" style="-inkscape-stroke:none"/><g fill-rule="evenodd"><path d="m169.71 156.6-0.23498 1.6292 2.5652-3.3719-3.9594 1.5078z" color="#000000" stroke-width=".23278pt" style="-inkscape-stroke:none"/><path d="m172.49 154.52-5.0254 1.9141 2.0684 0.29883-0.29883 2.0684zm-0.90429 0.67774-1.873 2.4629 0.17188-1.1914-0.1543-0.0215-1.0352-0.14844z" color="#000000" style="-inkscape-stroke:none"/></g><path d="m154.2 168.02-0.22851 0.53516 21.252 9.0254 0.22852-0.53711z" color="#000000" style="-inkscape-stroke:none"/><g fill-rule="evenodd"><path d="m173.2 176.4-1.5263 0.61635 4.2046 0.52106-3.2946-2.6637z" color="#000000" stroke-width=".23278pt" style="-inkscape-stroke:none"/><path d="m172.21 174.38 0.78125 1.9375-1.9375 0.78125 5.3379 0.66211zm0.73633 0.99414 2.4043 1.9453-3.0684-0.38086 1.1133-0.44922-0.0586-0.14453z" color="#000000" style="-inkscape-stroke:none"/></g><g stroke-width=".58196"><g aria-label="x"><path d="m182.66 181.16v-0.25607c-0.5292-0.0683-0.64016-0.15363-0.95597-0.62308l-0.82794-1.2376c0.29021-0.42678 0.49506-0.71698 0.6743-0.93037 0.30728-0.34995 0.41824-0.39263 0.94744-0.44384v-0.25607h-1.5876v0.25607c0.34995 0.0427 0.40116 0.0853 0.25606 0.34142-0.1451 0.27313-0.31581 0.52919-0.47799 0.76819l-0.48652-0.75112c-0.16217-0.24753-0.11949-0.30728 0.22192-0.35849v-0.25607h-1.7242v0.25607c0.48652 0.0597 0.59749 0.12803 0.84501 0.51212l0.74259 1.1608c-0.25607 0.38409-0.48652 0.71697-0.72552 1.0072-0.34141 0.41824-0.44384 0.48652-0.97304 0.5548v0.25607h1.6217v-0.25607c-0.42677-0.0683-0.44385-0.1451-0.28167-0.41823 0.15364-0.28167 0.34995-0.59749 0.53773-0.87062l0.61455 0.94744c0.14511 0.23045 0.0768 0.29874-0.28167 0.34141v0.25607z"/></g><g aria-label="y"><path d="m179.68 150.73h-1.5876v0.25606c0.48652 0.0683 0.54627 0.16217 0.44385 0.46945-0.17925 0.56334-0.54627 1.5193-0.78527 2.1083l-0.77672-2.1253c-0.11096-0.29874-0.0683-0.39263 0.33288-0.45238l-9e-3 -0.25606h-1.7583v0.25606c0.46945 0.0598 0.56334 0.18778 0.74259 0.62309 0.24752 0.60601 0.63162 1.6388 0.97304 2.6033 0.0598 0.1451 0.0598 0.2646 0.0171 0.39263-0.0341 0.10243-0.10243 0.28167-0.25606 0.56334-0.19632 0.35849-0.35849 0.5548-0.63163 0.72551-0.1451 0.0939-0.21338 0.17925-0.21338 0.31582 0 0.21338 0.25606 0.42677 0.50359 0.42677 0.12803 0 0.23899-0.0427 0.28167-0.21339 0.12803-0.45238 0.30727-0.92183 0.88768-2.296 0.58895-1.3828 0.86208-2.0826 1.0755-2.5265 0.22192-0.47798 0.30728-0.54627 0.75966-0.61455z"/></g><g aria-label="z"><path d="m155.2 128.12-0.1195 0.20485c-0.31581 0.5036-0.49505 0.68284-1.1438 0.68284h-0.83647c0.69991-1.1181 1.3913-2.2022 2.0997-3.2947l-0.0598-0.13657h-1.9888c-0.31581 0-0.41823-0.0512-0.46945-0.17925h-0.20485c-0.0683 0.36703-0.19631 0.90476-0.29874 1.2547l0.25607 0.0854 0.11096-0.23046c0.23899-0.47798 0.34995-0.60601 0.93036-0.60601h0.78526c-0.69991 1.1181-1.3998 2.2107-2.1424 3.2776l0.0598 0.1451h2.8594c0.13656-0.33288 0.28167-0.73405 0.4097-1.084z"/></g><g fill="#800000" aria-label="[1,0,-1]"><path d="m110.5 135.62v-0.27314c-0.92183-0.0768-0.9389-0.10242-0.9389-0.76819v-5.3176c0-0.66577 0.0256-0.69137 0.9389-0.76819v-0.27314h-1.4937v7.4002z"/><path d="m114.34 134.23v-0.27313c-0.78526-0.0512-0.83648-0.1195-0.83648-0.73405v-4.4128c-0.48652 0.18778-0.99011 0.34142-1.5534 0.44384v0.23046l0.44385 0.0171c0.35848 0.0171 0.39263 0.0598 0.39263 0.48652v3.2349c0 0.61455-0.0512 0.68283-0.82794 0.73405v0.27313z"/><path d="m116 133.09c-0.21339 0-0.43531 0.1451-0.43531 0.37556 0 0.1451 0.0768 0.21339 0.11949 0.22192 0.29874 0.0768 0.54627 0.27314 0.54627 0.58041 0 0.32435-0.24753 0.54627-0.68283 0.72552l0.11096 0.2902c0.5548-0.16217 1.1694-0.53773 1.1694-1.2376 0-0.61455-0.49505-0.95597-0.8194-0.95597z"/><path d="m119.27 128.81c-1.2974 0-1.7668 1.5108-1.7668 2.757 0 1.3913 0.46091 2.7655 1.7668 2.7655 1.2889 0 1.7498-1.5193 1.7498-2.7655 0-1.3401-0.46091-2.757-1.7412-2.757zm0 0.31581c0.75112 0 0.97305 1.2291 0.97305 2.4326 0 1.195-0.20486 2.4497-0.96451 2.4497-0.74258 0-0.99865-1.2632-0.99865-2.4497 0-1.1864 0.20485-2.4326 0.98158-2.4326z"/><path d="m122.17 133.09c-0.21338 0-0.43531 0.1451-0.43531 0.37556 0 0.1451 0.0768 0.21339 0.1195 0.22192 0.29874 0.0768 0.54627 0.27314 0.54627 0.58041 0 0.32435-0.24753 0.54627-0.68284 0.72552l0.11096 0.2902c0.55481-0.16217 1.1694-0.53773 1.1694-1.2376 0-0.61455-0.49505-0.95597-0.8194-0.95597z"/><path d="m125.97 132.05h-2.0144l-0.1195 0.50359h2.0144z"/><path d="m129.78 134.23v-0.27313c-0.78526-0.0512-0.83647-0.1195-0.83647-0.73405v-4.4128c-0.48652 0.18778-0.99012 0.34142-1.5535 0.44384v0.23046l0.44385 0.0171c0.35849 0.0171 0.39263 0.0598 0.39263 0.48652v3.2349c0 0.61455-0.0512 0.68283-0.82794 0.73405v0.27313z"/><path d="m132.63 135.62v-7.4002h-1.4937v0.27314c0.92183 0.0768 0.9389 0.10242 0.9389 0.76819v5.309c0 0.66576-0.0171 0.69991-0.9389 0.77672v0.27314z"/></g><g fill="#008000" aria-label="[1,1,-1]"><path d="m94.216 151.15v-0.27314c-0.92183-0.0768-0.9389-0.10242-0.9389-0.76819v-5.3176c0-0.66577 0.02561-0.69138 0.9389-0.76819v-0.27314h-1.4937v7.4002z"/><path d="m98.052 149.76v-0.27314c-0.78526-0.0512-0.83647-0.11949-0.83647-0.73405v-4.4128c-0.48652 0.18778-0.99011 0.34142-1.5535 0.44384v0.23046l0.44384 0.0171c0.35849 0.0171 0.39263 0.0597 0.39263 0.48652v3.2349c0 0.61456-0.05121 0.68284-0.82794 0.73405v0.27314z"/><path d="m99.711 148.61c-0.21339 0-0.43531 0.1451-0.43531 0.37556 0 0.1451 0.07682 0.21338 0.1195 0.22192 0.29874 0.0768 0.54627 0.27313 0.54627 0.58041 0 0.32435-0.24753 0.54627-0.68284 0.72551l0.11096 0.29021c0.5548-0.16218 1.1694-0.53773 1.1694-1.2376 0-0.61455-0.49506-0.95597-0.8194-0.95597z"/><path d="m104.22 149.76v-0.27314c-0.78526-0.0512-0.83647-0.11949-0.83647-0.73405v-4.4128c-0.48652 0.18778-0.99012 0.34142-1.5535 0.44384v0.23046l0.44385 0.0171c0.35849 0.0171 0.39263 0.0597 0.39263 0.48652v3.2349c0 0.61456-0.0512 0.68284-0.82794 0.73405v0.27314z"/><path d="m105.88 148.61c-0.21339 0-0.43531 0.1451-0.43531 0.37556 0 0.1451 0.0768 0.21338 0.1195 0.22192 0.29874 0.0768 0.54627 0.27313 0.54627 0.58041 0 0.32435-0.24753 0.54627-0.68284 0.72551l0.11096 0.29021c0.5548-0.16218 1.1694-0.53773 1.1694-1.2376 0-0.61455-0.49506-0.95597-0.81941-0.95597z"/><path d="m109.69 147.57h-2.0144l-0.11949 0.50359h2.0144z"/><path d="m113.49 149.76v-0.27314c-0.78527-0.0512-0.83648-0.11949-0.83648-0.73405v-4.4128c-0.48652 0.18778-0.99011 0.34142-1.5534 0.44384v0.23046l0.44384 0.0171c0.35849 0.0171 0.39263 0.0597 0.39263 0.48652v3.2349c0 0.61456-0.0512 0.68284-0.82793 0.73405v0.27314z"/><path d="m116.34 151.15v-7.4002h-1.4937v0.27314c0.92183 0.0768 0.9389 0.10242 0.9389 0.76819v5.309c0 0.66576-0.0171 0.6999-0.9389 0.77672v0.27314z"/></g><g fill="#000080" aria-label="[0,1,-1]"><path d="m109.89 166.99v-0.27314c-0.92183-0.0768-0.9389-0.10242-0.9389-0.76819v-5.3176c0-0.66577 0.0256-0.69137 0.9389-0.76819v-0.27314h-1.4937v7.4002z"/><path d="m112.49 160.17c-1.2974 0-1.7668 1.5108-1.7668 2.757 0 1.3913 0.46091 2.7655 1.7668 2.7655 1.2889 0 1.7498-1.5193 1.7498-2.7655 0-1.3401-0.46091-2.757-1.7412-2.757zm0 0.31581c0.75112 0 0.97305 1.2291 0.97305 2.4326 0 1.195-0.20485 2.4497-0.96451 2.4497-0.74258 0-0.99865-1.2632-0.99865-2.4497 0-1.1864 0.20485-2.4326 0.98158-2.4326z"/><path d="m115.39 164.45c-0.21338 0-0.4353 0.1451-0.4353 0.37556 0 0.1451 0.0768 0.21339 0.11949 0.22192 0.29874 0.0768 0.54627 0.27314 0.54627 0.58041 0 0.32435-0.24753 0.54627-0.68284 0.72552l0.11097 0.2902c0.5548-0.16217 1.1694-0.53773 1.1694-1.2376 0-0.61455-0.49505-0.95597-0.8194-0.95597z"/><path d="m119.9 165.59v-0.27313c-0.78526-0.0512-0.83647-0.1195-0.83647-0.73405v-4.4128c-0.48652 0.18778-0.99011 0.34142-1.5534 0.44384v0.23046l0.44384 0.0171c0.35849 0.0171 0.39263 0.0598 0.39263 0.48652v3.2349c0 0.61455-0.0512 0.68283-0.82794 0.73405v0.27313z"/><path d="m121.55 164.45c-0.21339 0-0.43531 0.1451-0.43531 0.37556 0 0.1451 0.0768 0.21339 0.1195 0.22192 0.29874 0.0768 0.54627 0.27314 0.54627 0.58041 0 0.32435-0.24753 0.54627-0.68284 0.72552l0.11096 0.2902c0.55481-0.16217 1.1694-0.53773 1.1694-1.2376 0-0.61455-0.49506-0.95597-0.8194-0.95597z"/><path d="m125.36 163.41h-2.0144l-0.1195 0.50359h2.0144z"/><path d="m129.16 165.59v-0.27313c-0.78526-0.0512-0.83648-0.1195-0.83648-0.73405v-4.4128c-0.48652 0.18778-0.99011 0.34142-1.5534 0.44384v0.23046l0.44384 0.0171c0.35849 0.0171 0.39264 0.0598 0.39264 0.48652v3.2349c0 0.61455-0.0512 0.68283-0.82794 0.73405v0.27313z"/><path d="m132.02 166.99v-7.4002h-1.4937v0.27314c0.92183 0.0768 0.9389 0.10242 0.9389 0.76819v5.309c0 0.66576-0.0171 0.69991-0.9389 0.77672v0.27314z"/></g></g><g stroke-width=".33499"><path class="cls-11" d="m142.05 139.35a0.88437 0.88437 0 0 0-0.91787 0.38859 1.072 1.072 0 0 0-0.067 0.71688 0.87767 0.87767 0 0 0-1.005 0 1.0485 1.0485 0 0 0-0.35509 0.62643 0.88102 0.88102 0 0 0-0.90113-0.42209 1.0552 1.0552 0 0 0-0.57618 0.42879 0.87767 0.87767 0 0 0-0.62978-0.73363 1.0552 1.0552 0 0 0-0.70013 0.15745 0.88437 0.88437 0 0 0-0.29145-0.95137 1.0284 1.0284 0 0 0-0.70347-0.14069 0.87767 0.87767 0 0 0 0.12053-0.98823 1.0653 1.0653 0 0 0-0.60967-0.42208 0.88437 0.88437 0 0 0 0.51253-0.85423 1.0418 1.0418 0 0 0-0.36515-0.61973 0.87767 0.87767 0 0 0 0.81403-0.57283 1.0619 1.0619 0 0 0-0.0837-0.71353 0.87767 0.87767 0 0 0 0.97482-0.19094 1.0586 1.0586 0 0 0 0.21775-0.68674 0.87767 0.87767 0 0 0 0.96812 0.2211v-0.0201a1.0921 1.0921 0 0 0 0.45894-0.52592 0.90447 0.90447 0 0 0 0.78051 0.61303 1.3098 1.3098 0 0 0 0.66999-0.29814 0.87767 0.87767 0 0 0 0.47568 0.87096 1.0552 1.0552 0 0 0 0.72023 0 0.87767 0.87767 0 0 0 0.0837 1.005 1.0519 1.0519 0 0 0 0.66999 0.2881 0.88102 0.88102 0 0 0-0.335 0.94131 1.0519 1.0519 0 0 0 0.48574 0.52929 0.87767 0.87767 0 0 0-0.66998 0.72692 1.0418 1.0418 0 0 0 0.25794 0.62643z" fill="#500"/><path class="cls-7" d="m142.73 138.03 0.33499-0.0369-0.33499-0.11053s-0.66998-0.24119-0.62643-0.78722a1.005 1.005 0 0 1 0.46899-0.63648l0.29813-0.17085-0.33498 0.0301s-0.72358 0.057-0.89443-0.46564a0.97147 0.97147 0 0 1 0.16751-0.77382l0.20433-0.27469-0.30148 0.16413s-0.63984 0.335-1.005-0.0603a0.94802 0.94802 0 0 1-0.16079-0.77048l0.0737-0.33499-0.20769 0.27469s-0.44218 0.57619-0.94466 0.35509a1.0284 1.0284 0 0 1-0.48239-0.64988l-0.057-0.33498-0.0503 0.33498s-0.18759 0.70347-0.70347 0.70347a1.2127 1.2127 0 0 1-0.66998-0.39863l-0.21774-0.27803 0.0536 0.33498s0.13065 0.71353-0.37183 0.93797a0.97147 0.97147 0 0 1-0.78722-0.0871l-0.29814-0.17419 0.19764 0.28139s0.41538 0.59963 0.0468 1.005a0.98152 0.98152 0 0 1-0.75037 0.24119l-0.33499-0.0403 0.29814 0.17755s0.61973 0.37853 0.44888 0.90446a0.95807 0.95807 0 0 1-0.58957 0.52594l-0.335 0.10724 0.335 0.0401s0.72022 0.0938 0.77717 0.64318a0.97147 0.97147 0 0 1-0.33499 0.72024l-0.25794 0.23114 0.33499-0.10053s0.69677-0.2077 0.97146 0.26798a0.98152 0.98152 0 0 1 0 0.79058l-0.14069 0.31154 0.26129-0.22444s0.54939-0.47234 1.005-0.15075a0.97817 0.97817 0 0 1 0.31825 0.72358v0.33499l0.14738-0.3149s0.3082-0.66997 0.84753-0.54267a0.95472 0.95472 0 0 1 0.58288 0.53263l0.1407 0.31488v-0.33498s0.0167-0.72692 0.55608-0.84082a0.96142 0.96142 0 0 1 0.75037 0.24789l0.2546 0.23114-0.134-0.31823s-0.27804-0.66999 0.1675-1.005a0.97817 0.97817 0 0 1 0.78723-0.0804l0.33498 0.10724-0.25459-0.23448s-0.52593-0.4958-0.25124-0.97483a0.96477 0.96477 0 0 1 0.66663-0.36848zm-0.66998 1.3098a0.88437 0.88437 0 0 0-0.91787 0.38858 1.072 1.072 0 0 0-0.067 0.71688 0.87767 0.87767 0 0 0-1.005 0 1.0485 1.0485 0 0 0-0.35509 0.62642 0.88102 0.88102 0 0 0-0.90112-0.42208 1.0552 1.0552 0 0 0-0.57618 0.42878 0.87767 0.87767 0 0 0-0.63648-0.73027 1.0552 1.0552 0 0 0-0.70013 0.15745 0.88437 0.88437 0 0 0-0.29144-0.95137 1.0284 1.0284 0 0 0-0.70348-0.14069 0.87767 0.87767 0 0 0 0.12054-0.98823 1.0653 1.0653 0 0 0-0.60968-0.42208 0.88437 0.88437 0 0 0 0.51253-0.85423 1.0418 1.0418 0 0 0-0.36514-0.61973 0.87767 0.87767 0 0 0 0.81402-0.57283 1.0619 1.0619 0 0 0-0.0837-0.71353 0.87767 0.87767 0 0 0 0.97483-0.19094 1.0586 1.0586 0 0 0 0.21774-0.68674 0.87767 0.87767 0 0 0 0.96812 0.2211v-0.0201a1.0921 1.0921 0 0 0 0.45894-0.52592 0.90447 0.90447 0 0 0 0.78052 0.61303 1.3098 1.3098 0 0 0 0.66998-0.29814 0.87767 0.87767 0 0 0 0.47569 0.87096 1.0552 1.0552 0 0 0 0.72022 0 0.87767 0.87767 0 0 0 0.0837 1.005 1.0519 1.0519 0 0 0 0.66998 0.2881 0.88102 0.88102 0 0 0-0.335 0.94131 1.0519 1.0519 0 0 0 0.48574 0.52929 0.87767 0.87767 0 0 0-0.66998 0.72692 1.0418 1.0418 0 0 0 0.25794 0.62643z" fill="#010101"/><path class="cls-12" d="m141.67 137.6a2.7201 2.7201 0 1 1-2.7168-2.7201 2.7168 2.7168 0 0 1 2.7168 2.7201z" fill="#f55"/><path class="cls-11" d="m125.36 149.39a0.88437 0.88437 0 0 0-0.91787 0.38859 1.072 1.072 0 0 0-0.067 0.71688 0.87767 0.87767 0 0 0-1.005 0 1.0485 1.0485 0 0 0-0.35509 0.62643 0.88102 0.88102 0 0 0-0.90114-0.4221 1.0552 1.0552 0 0 0-0.57617 0.42879 0.87767 0.87767 0 0 0-0.62979-0.73363 1.0552 1.0552 0 0 0-0.70013 0.15746 0.88437 0.88437 0 0 0-0.29144-0.95138 1.0284 1.0284 0 0 0-0.70347-0.14069 0.87767 0.87767 0 0 0 0.12053-0.98823 1.0653 1.0653 0 0 0-0.60968-0.42208 0.88437 0.88437 0 0 0 0.51253-0.85422 1.0418 1.0418 0 0 0-0.36514-0.61974 0.87767 0.87767 0 0 0 0.81403-0.57282 1.0619 1.0619 0 0 0-0.0837-0.71354 0.87767 0.87767 0 0 0 0.97482-0.19094 1.0586 1.0586 0 0 0 0.21774-0.68673 0.87767 0.87767 0 0 0 0.96813 0.2211v-0.0201a1.0921 1.0921 0 0 0 0.45893-0.52593 0.90447 0.90447 0 0 0 0.78052 0.61304 1.3098 1.3098 0 0 0 0.66998-0.29815 0.87767 0.87767 0 0 0 0.47569 0.87097 1.0552 1.0552 0 0 0 0.72022 0 0.87767 0.87767 0 0 0 0.0837 1.005 1.0519 1.0519 0 0 0 0.66998 0.2881 0.88102 0.88102 0 0 0-0.33499 0.94131 1.0519 1.0519 0 0 0 0.48574 0.52929 0.87767 0.87767 0 0 0-0.66999 0.72692 1.0418 1.0418 0 0 0 0.25795 0.62643z" fill="#447821"/><path class="cls-7" d="m126.03 148.08 0.33498-0.0369-0.33498-0.11053s-0.66998-0.24119-0.62643-0.78722a1.005 1.005 0 0 1 0.46899-0.63649l0.29813-0.17084-0.33499 0.0301s-0.72357 0.057-0.89442-0.46565a0.97147 0.97147 0 0 1 0.1675-0.77381l0.20434-0.2747-0.30148 0.16414s-0.63984 0.335-1.005-0.0603a0.94802 0.94802 0 0 1-0.1608-0.77047l0.0737-0.335-0.20769 0.2747s-0.44219 0.57619-0.94467 0.35509a1.0284 1.0284 0 0 1-0.48238-0.64988l-0.057-0.33499-0.0503 0.33499s-0.1876 0.70347-0.70347 0.70347a1.2127 1.2127 0 0 1-0.66998-0.39863l-0.21775-0.27804 0.0536 0.33499s0.13065 0.71352-0.37183 0.93797a0.97147 0.97147 0 0 1-0.78723-0.0871l-0.29814-0.17419 0.19764 0.28139s0.41538 0.59962 0.0469 1.005a0.98152 0.98152 0 0 1-0.75037 0.24119l-0.335-0.0403 0.29814 0.17754s0.61973 0.37854 0.44889 0.90447a0.95807 0.95807 0 0 1-0.58958 0.52594l-0.33499 0.10724 0.33499 0.0401s0.72023 0.0938 0.77718 0.64318a0.97147 0.97147 0 0 1-0.33499 0.72024l-0.25794 0.23113 0.33498-0.10052s0.69678-0.20771 0.97147 0.26798a0.98152 0.98152 0 0 1 0 0.79058l-0.14069 0.31154 0.26129-0.22445s0.54938-0.47233 1.005-0.15074a0.97817 0.97817 0 0 1 0.31825 0.72358v0.33498l0.14739-0.31489s0.30819-0.66997 0.84753-0.54267a0.95472 0.95472 0 0 1 0.58287 0.53263l0.1407 0.31488v-0.33498s0.0167-0.72692 0.55609-0.84082a0.96142 0.96142 0 0 1 0.75037 0.24789l0.2546 0.23114-0.13401-0.31824s-0.27803-0.66998 0.16751-1.005a0.97817 0.97817 0 0 1 0.78722-0.0804l0.33499 0.10724-0.25459-0.23449s-0.52594-0.49579-0.25125-0.97482a0.96477 0.96477 0 0 1 0.66663-0.36849zm-0.66998 1.3098a0.88437 0.88437 0 0 0-0.91788 0.38858 1.072 1.072 0 0 0-0.067 0.71688 0.87767 0.87767 0 0 0-1.005 0 1.0485 1.0485 0 0 0-0.35509 0.62643 0.88102 0.88102 0 0 0-0.90113-0.42208 1.0552 1.0552 0 0 0-0.57617 0.42878 0.87767 0.87767 0 0 0-0.63649-0.73028 1.0552 1.0552 0 0 0-0.70012 0.15746 0.88437 0.88437 0 0 0-0.29145-0.95138 1.0284 1.0284 0 0 0-0.70347-0.14069 0.87767 0.87767 0 0 0 0.12053-0.98823 1.0653 1.0653 0 0 0-0.60968-0.42208 0.88437 0.88437 0 0 0 0.51253-0.85422 1.0418 1.0418 0 0 0-0.36514-0.61974 0.87767 0.87767 0 0 0 0.81403-0.57282 1.0619 1.0619 0 0 0-0.0837-0.71354 0.87767 0.87767 0 0 0 0.97482-0.19094 1.0586 1.0586 0 0 0 0.21775-0.68673 0.87767 0.87767 0 0 0 0.96812 0.2211v-0.0201a1.0921 1.0921 0 0 0 0.45894-0.52593 0.90447 0.90447 0 0 0 0.78051 0.61304 1.3098 1.3098 0 0 0 0.66998-0.29815 0.87767 0.87767 0 0 0 0.47569 0.87097 1.0552 1.0552 0 0 0 0.72022 0 0.87767 0.87767 0 0 0 0.0837 1.005 1.0519 1.0519 0 0 0 0.66999 0.2881 0.88102 0.88102 0 0 0-0.335 0.94131 1.0519 1.0519 0 0 0 0.48574 0.52929 0.87767 0.87767 0 0 0-0.66998 0.72692 1.0418 1.0418 0 0 0 0.25794 0.62643z" fill="#010101"/><path class="cls-12" d="m124.97 147.65a2.7201 2.7201 0 1 1-2.7168-2.7201 2.7168 2.7168 0 0 1 2.7168 2.7201z" fill="#aade87"/><path class="cls-11" d="m140.31 159.21a0.88437 0.88437 0 0 0-0.91787 0.3886 1.072 1.072 0 0 0-0.067 0.71688 0.87767 0.87767 0 0 0-1.005 0 1.0485 1.0485 0 0 0-0.35509 0.62642 0.88102 0.88102 0 0 0-0.90113-0.42209 1.0552 1.0552 0 0 0-0.57618 0.42879 0.87767 0.87767 0 0 0-0.62979-0.73363 1.0552 1.0552 0 0 0-0.70013 0.15745 0.88437 0.88437 0 0 0-0.29144-0.95137 1.0284 1.0284 0 0 0-0.70347-0.14069 0.87767 0.87767 0 0 0 0.12053-0.98823 1.0653 1.0653 0 0 0-0.60968-0.42208 0.88437 0.88437 0 0 0 0.51253-0.85423 1.0418 1.0418 0 0 0-0.36514-0.61973 0.87767 0.87767 0 0 0 0.81403-0.57282 1.0619 1.0619 0 0 0-0.0837-0.71354 0.87767 0.87767 0 0 0 0.97482-0.19094 1.0586 1.0586 0 0 0 0.21775-0.68673 0.87767 0.87767 0 0 0 0.96812 0.2211v-0.0201a1.0921 1.0921 0 0 0 0.45894-0.52593 0.90447 0.90447 0 0 0 0.78051 0.61303 1.3098 1.3098 0 0 0 0.66998-0.29814 0.87767 0.87767 0 0 0 0.47569 0.87097 1.0552 1.0552 0 0 0 0.72022 0 0.87767 0.87767 0 0 0 0.0837 1.005 1.0519 1.0519 0 0 0 0.66999 0.2881 0.88102 0.88102 0 0 0-0.335 0.94131 1.0519 1.0519 0 0 0 0.48574 0.52929 0.87767 0.87767 0 0 0-0.66999 0.72692 1.0418 1.0418 0 0 0 0.25795 0.62643z" fill="#214478"/><path class="cls-7" d="m140.98 157.89 0.33499-0.0368-0.33499-0.11053s-0.66998-0.24119-0.62643-0.78722a1.005 1.005 0 0 1 0.46899-0.63649l0.29813-0.17084-0.33498 0.0301s-0.72358 0.057-0.89443-0.46565a0.97147 0.97147 0 0 1 0.16751-0.77381l0.20433-0.2747-0.30148 0.16414s-0.63984 0.335-1.005-0.0603a0.94802 0.94802 0 0 1-0.1608-0.77047l0.0737-0.335-0.20769 0.27469s-0.44219 0.5762-0.94466 0.3551a1.0284 1.0284 0 0 1-0.48239-0.64988l-0.057-0.33499-0.0503 0.33499s-0.1876 0.70347-0.70347 0.70347a1.2127 1.2127 0 0 1-0.66998-0.39863l-0.21775-0.27804 0.0536 0.33499s0.13065 0.71352-0.37183 0.93796a0.97147 0.97147 0 0 1-0.78722-0.0871l-0.29814-0.1742 0.19763 0.2814s0.41539 0.59962 0.0469 1.005a0.98152 0.98152 0 0 1-0.75037 0.2412l-0.335-0.0403 0.29815 0.17755s0.61973 0.37854 0.44888 0.90447a0.95807 0.95807 0 0 1-0.58957 0.52593l-0.335 0.10724 0.335 0.0401s0.72022 0.0938 0.77717 0.64318a0.97147 0.97147 0 0 1-0.33499 0.72023l-0.25794 0.23114 0.33498-0.10053s0.69678-0.2077 0.97147 0.26799a0.98152 0.98152 0 0 1 0 0.79058l-0.14069 0.31153 0.26129-0.22444s0.54938-0.47233 1.005-0.15074a0.97817 0.97817 0 0 1 0.31824 0.72358v0.33498l0.14739-0.31489s0.3082-0.66997 0.84753-0.54268a0.95472 0.95472 0 0 1 0.58287 0.53264l0.14071 0.31488v-0.33499s0.0167-0.72692 0.55608-0.84081a0.96142 0.96142 0 0 1 0.75037 0.24789l0.2546 0.23114-0.134-0.31824s-0.27804-0.66998 0.1675-1.005a0.97817 0.97817 0 0 1 0.78722-0.0804l0.33499 0.10724-0.25459-0.23448s-0.52594-0.49579-0.25124-0.97482a0.96477 0.96477 0 0 1 0.66662-0.36849zm-0.66998 1.3098a0.88437 0.88437 0 0 0-0.91787 0.38858 1.072 1.072 0 0 0-0.067 0.71688 0.87767 0.87767 0 0 0-1.005 0 1.0485 1.0485 0 0 0-0.35509 0.62643 0.88102 0.88102 0 0 0-0.90112-0.42208 1.0552 1.0552 0 0 0-0.57618 0.42878 0.87767 0.87767 0 0 0-0.63648-0.73028 1.0552 1.0552 0 0 0-0.70013 0.15745 0.88437 0.88437 0 0 0-0.29145-0.95137 1.0284 1.0284 0 0 0-0.70347-0.14069 0.87767 0.87767 0 0 0 0.12053-0.98823 1.0653 1.0653 0 0 0-0.60967-0.42208 0.88437 0.88437 0 0 0 0.51253-0.85423 1.0418 1.0418 0 0 0-0.36515-0.61973 0.87767 0.87767 0 0 0 0.81403-0.57282 1.0619 1.0619 0 0 0-0.0837-0.71354 0.87767 0.87767 0 0 0 0.97482-0.19094 1.0586 1.0586 0 0 0 0.21775-0.68673 0.87767 0.87767 0 0 0 0.96812 0.2211v-0.0201a1.0921 1.0921 0 0 0 0.45894-0.52593 0.90447 0.90447 0 0 0 0.78051 0.61303 1.3098 1.3098 0 0 0 0.66999-0.29814 0.87767 0.87767 0 0 0 0.47568 0.87097 1.0552 1.0552 0 0 0 0.72023 0 0.87767 0.87767 0 0 0 0.0837 1.005 1.0519 1.0519 0 0 0 0.66998 0.2881 0.88102 0.88102 0 0 0-0.335 0.94131 1.0519 1.0519 0 0 0 0.48574 0.52929 0.87767 0.87767 0 0 0-0.66998 0.72692 1.0418 1.0418 0 0 0 0.25794 0.62643z" fill="#010101"/><path class="cls-12" d="m139.93 157.46a2.7201 2.7201 0 1 1-2.7168-2.7201 2.7168 2.7168 0 0 1 2.7168 2.7201z" fill="#afc6e9"/></g></g></svg>
