<?xml version="1.0" encoding="utf-8" standalone="no"?>
<!DOCTYPE svg PUBLIC "-//W3C//DTD SVG 1.1//EN"
  "http://www.w3.org/Graphics/SVG/1.1/DTD/svg11.dtd">
<!-- Created with matplotlib (https://matplotlib.org/) -->
<svg height="792pt" version="1.1" viewBox="0 0 792 792" width="792pt" xmlns="http://www.w3.org/2000/svg" xmlns:xlink="http://www.w3.org/1999/xlink">
 <defs>
  <style type="text/css">
*{stroke-linecap:butt;stroke-linejoin:round;}
  </style>
 </defs>
 <g id="figure_1">
  <g id="patch_1">
   <path d="M 0 792 
L 792 792 
L 792 0 
L 0 0 
z
" style="fill:#ffffff;"/>
  </g>
  <g id="axes_1">
   <g id="LineCollection_1">
    <path clip-path="url(#peb6383a630)" d="M 99 106.939317 
L 685.852683 106.939317 
" style="fill:none;stroke:#000000;stroke-width:1.5;"/>
   </g>
   <g id="line2d_1">
    <defs>
     <path d="M 0 10 
L 0 -10 
" id="me9699add57" style="stroke:#1f77b4;"/>
    </defs>
    <g clip-path="url(#peb6383a630)">
     <use style="fill:#1f77b4;stroke:#1f77b4;" x="458.78402" xlink:href="#me9699add57" y="106.939317"/>
     <use style="fill:#1f77b4;stroke:#1f77b4;" x="119.970551" xlink:href="#me9699add57" y="106.939317"/>
     <use style="fill:#1f77b4;stroke:#1f77b4;" x="308.853484" xlink:href="#me9699add57" y="106.939317"/>
     <use style="fill:#1f77b4;stroke:#1f77b4;" x="673.081552" xlink:href="#me9699add57" y="106.939317"/>
     <use style="fill:#1f77b4;stroke:#1f77b4;" x="653.631783" xlink:href="#me9699add57" y="106.939317"/>
     <use style="fill:#1f77b4;stroke:#1f77b4;" x="248.550399" xlink:href="#me9699add57" y="106.939317"/>
     <use style="fill:#1f77b4;stroke:#1f77b4;" x="544.926427" xlink:href="#me9699add57" y="106.939317"/>
     <use style="fill:#1f77b4;stroke:#1f77b4;" x="497.532483" xlink:href="#me9699add57" y="106.939317"/>
     <use style="fill:#1f77b4;stroke:#1f77b4;" x="449.281725" xlink:href="#me9699add57" y="106.939317"/>
     <use style="fill:#1f77b4;stroke:#1f77b4;" x="569.624782" xlink:href="#me9699add57" y="106.939317"/>
     <use style="fill:#1f77b4;stroke:#1f77b4;" x="358.457726" xlink:href="#me9699add57" y="106.939317"/>
     <use style="fill:#1f77b4;stroke:#1f77b4;" x="394.289471" xlink:href="#me9699add57" y="106.939317"/>
     <use style="fill:#1f77b4;stroke:#1f77b4;" x="582.710865" xlink:href="#me9699add57" y="106.939317"/>
     <use style="fill:#1f77b4;stroke:#1f77b4;" x="433.72433" xlink:href="#me9699add57" y="106.939317"/>
     <use style="fill:#1f77b4;stroke:#1f77b4;" x="593.663395" xlink:href="#me9699add57" y="106.939317"/>
     <use style="fill:#1f77b4;stroke:#1f77b4;" x="234.418824" xlink:href="#me9699add57" y="106.939317"/>
     <use style="fill:#1f77b4;stroke:#1f77b4;" x="282.899483" xlink:href="#me9699add57" y="106.939317"/>
     <use style="fill:#1f77b4;stroke:#1f77b4;" x="319.759982" xlink:href="#me9699add57" y="106.939317"/>
     <use style="fill:#1f77b4;stroke:#1f77b4;" x="331.530884" xlink:href="#me9699add57" y="106.939317"/>
     <use style="fill:#1f77b4;stroke:#1f77b4;" x="167.793359" xlink:href="#me9699add57" y="106.939317"/>
     <use style="fill:#1f77b4;stroke:#1f77b4;" x="109.25201" xlink:href="#me9699add57" y="106.939317"/>
     <use style="fill:#1f77b4;stroke:#1f77b4;" x="147.781453" xlink:href="#me9699add57" y="106.939317"/>
     <use style="fill:#1f77b4;stroke:#1f77b4;" x="339.406212" xlink:href="#me9699add57" y="106.939317"/>
     <use style="fill:#1f77b4;stroke:#1f77b4;" x="384.449872" xlink:href="#me9699add57" y="106.939317"/>
     <use style="fill:#1f77b4;stroke:#1f77b4;" x="295.321102" xlink:href="#me9699add57" y="106.939317"/>
     <use style="fill:#1f77b4;stroke:#1f77b4;" x="638.07939" xlink:href="#me9699add57" y="106.939317"/>
     <use style="fill:#1f77b4;stroke:#1f77b4;" x="179.77512" xlink:href="#me9699add57" y="106.939317"/>
     <use style="fill:#1f77b4;stroke:#1f77b4;" x="219.051358" xlink:href="#me9699add57" y="106.939317"/>
     <use style="fill:#1f77b4;stroke:#1f77b4;" x="207.624178" xlink:href="#me9699add57" y="106.939317"/>
     <use style="fill:#1f77b4;stroke:#1f77b4;" x="615.615328" xlink:href="#me9699add57" y="106.939317"/>
     <use style="fill:#1f77b4;stroke:#1f77b4;" x="682.994957" xlink:href="#me9699add57" y="106.939317"/>
     <use style="fill:#1f77b4;stroke:#1f77b4;" x="137.194967" xlink:href="#me9699add57" y="106.939317"/>
     <use style="fill:#1f77b4;stroke:#1f77b4;" x="365.578308" xlink:href="#me9699add57" y="106.939317"/>
     <use style="fill:#1f77b4;stroke:#1f77b4;" x="481.98957" xlink:href="#me9699add57" y="106.939317"/>
     <use style="fill:#1f77b4;stroke:#1f77b4;" x="409.562135" xlink:href="#me9699add57" y="106.939317"/>
     <use style="fill:#1f77b4;stroke:#1f77b4;" x="510.842433" xlink:href="#me9699add57" y="106.939317"/>
     <use style="fill:#1f77b4;stroke:#1f77b4;" x="494.054087" xlink:href="#me9699add57" y="106.939317"/>
     <use style="fill:#1f77b4;stroke:#1f77b4;" x="631.16947" xlink:href="#me9699add57" y="106.939317"/>
     <use style="fill:#1f77b4;stroke:#1f77b4;" x="606.667837" xlink:href="#me9699add57" y="106.939317"/>
     <use style="fill:#1f77b4;stroke:#1f77b4;" x="557.117954" xlink:href="#me9699add57" y="106.939317"/>
     <use style="fill:#1f77b4;stroke:#1f77b4;" x="526.286005" xlink:href="#me9699add57" y="106.939317"/>
     <use style="fill:#1f77b4;stroke:#1f77b4;" x="418.7046" xlink:href="#me9699add57" y="106.939317"/>
     <use style="fill:#1f77b4;stroke:#1f77b4;" x="192.486725" xlink:href="#me9699add57" y="106.939317"/>
     <use style="fill:#1f77b4;stroke:#1f77b4;" x="126.550531" xlink:href="#me9699add57" y="106.939317"/>
     <use style="fill:#1f77b4;stroke:#1f77b4;" x="202.129916" xlink:href="#me9699add57" y="106.939317"/>
     <use style="fill:#1f77b4;stroke:#1f77b4;" x="259.636112" xlink:href="#me9699add57" y="106.939317"/>
     <use style="fill:#1f77b4;stroke:#1f77b4;" x="277.551941" xlink:href="#me9699add57" y="106.939317"/>
     <use style="fill:#1f77b4;stroke:#1f77b4;" x="533.000077" xlink:href="#me9699add57" y="106.939317"/>
     <use style="fill:#1f77b4;stroke:#1f77b4;" x="444.915523" xlink:href="#me9699add57" y="106.939317"/>
    </g>
   </g>
  </g>
  <g id="axes_2"/>
  <g id="axes_3">
   <g id="patch_2">
    <path d="M 99 704.88 
L 685.852683 704.88 
L 685.852683 121.813463 
L 99 121.813463 
z
" style="fill:#ffffff;"/>
   </g>
   <g id="PathCollection_1">
    <defs>
     <path d="M 0 3 
C 0.795609 3 1.55874 2.683901 2.12132 2.12132 
C 2.683901 1.55874 3 0.795609 3 0 
C 3 -0.795609 2.683901 -1.55874 2.12132 -2.12132 
C 1.55874 -2.683901 0.795609 -3 0 -3 
C -0.795609 -3 -1.55874 -2.683901 -2.12132 -2.12132 
C -2.683901 -1.55874 -3 -0.795609 -3 0 
C -3 0.795609 -2.683901 1.55874 -2.12132 2.12132 
C -1.55874 2.683901 -0.795609 3 0 3 
z
" id="m4f64aac519" style="stroke:#1f77b4;"/>
    </defs>
    <g clip-path="url(#p6d891c66ef)">
     <use style="fill:#1f77b4;stroke:#1f77b4;" x="458.78402" xlink:href="#m4f64aac519" y="174.261981"/>
     <use style="fill:#1f77b4;stroke:#1f77b4;" x="119.970551" xlink:href="#m4f64aac519" y="491.371113"/>
     <use style="fill:#1f77b4;stroke:#1f77b4;" x="308.853484" xlink:href="#m4f64aac519" y="486.485939"/>
     <use style="fill:#1f77b4;stroke:#1f77b4;" x="673.081552" xlink:href="#m4f64aac519" y="359.999246"/>
     <use style="fill:#1f77b4;stroke:#1f77b4;" x="653.631783" xlink:href="#m4f64aac519" y="456.386824"/>
     <use style="fill:#1f77b4;stroke:#1f77b4;" x="248.550399" xlink:href="#m4f64aac519" y="528.065829"/>
     <use style="fill:#1f77b4;stroke:#1f77b4;" x="544.926427" xlink:href="#m4f64aac519" y="341.861304"/>
     <use style="fill:#1f77b4;stroke:#1f77b4;" x="497.532483" xlink:href="#m4f64aac519" y="288.099869"/>
     <use style="fill:#1f77b4;stroke:#1f77b4;" x="449.281725" xlink:href="#m4f64aac519" y="663.529835"/>
     <use style="fill:#1f77b4;stroke:#1f77b4;" x="569.624782" xlink:href="#m4f64aac519" y="375.93778"/>
     <use style="fill:#1f77b4;stroke:#1f77b4;" x="358.457726" xlink:href="#m4f64aac519" y="635.900554"/>
     <use style="fill:#1f77b4;stroke:#1f77b4;" x="394.289471" xlink:href="#m4f64aac519" y="148.238928"/>
     <use style="fill:#1f77b4;stroke:#1f77b4;" x="582.710865" xlink:href="#m4f64aac519" y="196.31445"/>
     <use style="fill:#1f77b4;stroke:#1f77b4;" x="433.72433" xlink:href="#m4f64aac519" y="264.89216"/>
     <use style="fill:#1f77b4;stroke:#1f77b4;" x="593.663395" xlink:href="#m4f64aac519" y="608.783665"/>
     <use style="fill:#1f77b4;stroke:#1f77b4;" x="234.418824" xlink:href="#m4f64aac519" y="622.556684"/>
     <use style="fill:#1f77b4;stroke:#1f77b4;" x="282.899483" xlink:href="#m4f64aac519" y="577.772098"/>
     <use style="fill:#1f77b4;stroke:#1f77b4;" x="319.759982" xlink:href="#m4f64aac519" y="125.448503"/>
     <use style="fill:#1f77b4;stroke:#1f77b4;" x="331.530884" xlink:href="#m4f64aac519" y="702.671472"/>
     <use style="fill:#1f77b4;stroke:#1f77b4;" x="167.793359" xlink:href="#m4f64aac519" y="614.853151"/>
     <use style="fill:#1f77b4;stroke:#1f77b4;" x="109.25201" xlink:href="#m4f64aac519" y="134.108165"/>
     <use style="fill:#1f77b4;stroke:#1f77b4;" x="147.781453" xlink:href="#m4f64aac519" y="212.600345"/>
     <use style="fill:#1f77b4;stroke:#1f77b4;" x="339.406212" xlink:href="#m4f64aac519" y="437.567505"/>
     <use style="fill:#1f77b4;stroke:#1f77b4;" x="384.449872" xlink:href="#m4f64aac519" y="504.079155"/>
     <use style="fill:#1f77b4;stroke:#1f77b4;" x="295.321102" xlink:href="#m4f64aac519" y="260.745062"/>
     <use style="fill:#1f77b4;stroke:#1f77b4;" x="638.07939" xlink:href="#m4f64aac519" y="238.767522"/>
     <use style="fill:#1f77b4;stroke:#1f77b4;" x="179.77512" xlink:href="#m4f64aac519" y="349.894083"/>
     <use style="fill:#1f77b4;stroke:#1f77b4;" x="219.051358" xlink:href="#m4f64aac519" y="312.595473"/>
     <use style="fill:#1f77b4;stroke:#1f77b4;" x="207.624178" xlink:href="#m4f64aac519" y="593.218809"/>
     <use style="fill:#1f77b4;stroke:#1f77b4;" x="615.615328" xlink:href="#m4f64aac519" y="164.60201"/>
     <use style="fill:#1f77b4;stroke:#1f77b4;" x="682.994957" xlink:href="#m4f64aac519" y="689.010846"/>
     <use style="fill:#1f77b4;stroke:#1f77b4;" x="137.194967" xlink:href="#m4f64aac519" y="402.80006"/>
     <use style="fill:#1f77b4;stroke:#1f77b4;" x="365.578308" xlink:href="#m4f64aac519" y="332.632171"/>
     <use style="fill:#1f77b4;stroke:#1f77b4;" x="481.98957" xlink:href="#m4f64aac519" y="569.819521"/>
     <use style="fill:#1f77b4;stroke:#1f77b4;" x="409.562135" xlink:href="#m4f64aac519" y="541.600934"/>
     <use style="fill:#1f77b4;stroke:#1f77b4;" x="510.842433" xlink:href="#m4f64aac519" y="517.043817"/>
     <use style="fill:#1f77b4;stroke:#1f77b4;" x="494.054087" xlink:href="#m4f64aac519" y="289.836257"/>
     <use style="fill:#1f77b4;stroke:#1f77b4;" x="631.16947" xlink:href="#m4f64aac519" y="428.960651"/>
     <use style="fill:#1f77b4;stroke:#1f77b4;" x="606.667837" xlink:href="#m4f64aac519" y="561.883035"/>
     <use style="fill:#1f77b4;stroke:#1f77b4;" x="557.117954" xlink:href="#m4f64aac519" y="654.404363"/>
     <use style="fill:#1f77b4;stroke:#1f77b4;" x="526.286005" xlink:href="#m4f64aac519" y="474.532672"/>
     <use style="fill:#1f77b4;stroke:#1f77b4;" x="418.7046" xlink:href="#m4f64aac519" y="449.058272"/>
     <use style="fill:#1f77b4;stroke:#1f77b4;" x="192.486725" xlink:href="#m4f64aac519" y="219.666456"/>
     <use style="fill:#1f77b4;stroke:#1f77b4;" x="126.550531" xlink:href="#m4f64aac519" y="670.561168"/>
     <use style="fill:#1f77b4;stroke:#1f77b4;" x="202.129916" xlink:href="#m4f64aac519" y="409.505187"/>
     <use style="fill:#1f77b4;stroke:#1f77b4;" x="259.636112" xlink:href="#m4f64aac519" y="191.181675"/>
     <use style="fill:#1f77b4;stroke:#1f77b4;" x="277.551941" xlink:href="#m4f64aac519" y="302.613059"/>
     <use style="fill:#1f77b4;stroke:#1f77b4;" x="533.000077" xlink:href="#m4f64aac519" y="251.397142"/>
     <use style="fill:#1f77b4;stroke:#1f77b4;" x="444.915523" xlink:href="#m4f64aac519" y="394.968295"/>
    </g>
   </g>
   <g id="matplotlib.axis_1">
    <g id="xtick_1">
     <g id="line2d_2">
      <defs>
       <path d="M 0 0 
L 0 3.5 
" id="m293888353e" style="stroke:#000000;stroke-width:0.8;"/>
      </defs>
      <g>
       <use style="stroke:#000000;stroke-width:0.8;" x="99" xlink:href="#m293888353e" y="704.88"/>
      </g>
     </g>
     <g id="text_1">
      <!-- 0.0 -->
      <defs>
       <path d="M 31.78125 66.40625 
Q 24.171875 66.40625 20.328125 58.90625 
Q 16.5 51.421875 16.5 36.375 
Q 16.5 21.390625 20.328125 13.890625 
Q 24.171875 6.390625 31.78125 6.390625 
Q 39.453125 6.390625 43.28125 13.890625 
Q 47.125 21.390625 47.125 36.375 
Q 47.125 51.421875 43.28125 58.90625 
Q 39.453125 66.40625 31.78125 66.40625 
z
M 31.78125 74.21875 
Q 44.046875 74.21875 50.515625 64.515625 
Q 56.984375 54.828125 56.984375 36.375 
Q 56.984375 17.96875 50.515625 8.265625 
Q 44.046875 -1.421875 31.78125 -1.421875 
Q 19.53125 -1.421875 13.0625 8.265625 
Q 6.59375 17.96875 6.59375 36.375 
Q 6.59375 54.828125 13.0625 64.515625 
Q 19.53125 74.21875 31.78125 74.21875 
z
" id="DejaVuSans-48"/>
       <path d="M 10.6875 12.40625 
L 21 12.40625 
L 21 0 
L 10.6875 0 
z
" id="DejaVuSans-46"/>
      </defs>
      <g transform="translate(91.048438 719.478438)scale(0.1 -0.1)">
       <use xlink:href="#DejaVuSans-48"/>
       <use x="63.623047" xlink:href="#DejaVuSans-46"/>
       <use x="95.410156" xlink:href="#DejaVuSans-48"/>
      </g>
     </g>
    </g>
    <g id="xtick_2">
     <g id="line2d_3">
      <g>
       <use style="stroke:#000000;stroke-width:0.8;" x="216.370537" xlink:href="#m293888353e" y="704.88"/>
      </g>
     </g>
     <g id="text_2">
      <!-- 0.2 -->
      <defs>
       <path d="M 19.1875 8.296875 
L 53.609375 8.296875 
L 53.609375 0 
L 7.328125 0 
L 7.328125 8.296875 
Q 12.9375 14.109375 22.625 23.890625 
Q 32.328125 33.6875 34.8125 36.53125 
Q 39.546875 41.84375 41.421875 45.53125 
Q 43.3125 49.21875 43.3125 52.78125 
Q 43.3125 58.59375 39.234375 62.25 
Q 35.15625 65.921875 28.609375 65.921875 
Q 23.96875 65.921875 18.8125 64.3125 
Q 13.671875 62.703125 7.8125 59.421875 
L 7.8125 69.390625 
Q 13.765625 71.78125 18.9375 73 
Q 24.125 74.21875 28.421875 74.21875 
Q 39.75 74.21875 46.484375 68.546875 
Q 53.21875 62.890625 53.21875 53.421875 
Q 53.21875 48.921875 51.53125 44.890625 
Q 49.859375 40.875 45.40625 35.40625 
Q 44.1875 33.984375 37.640625 27.21875 
Q 31.109375 20.453125 19.1875 8.296875 
z
" id="DejaVuSans-50"/>
      </defs>
      <g transform="translate(208.418974 719.478438)scale(0.1 -0.1)">
       <use xlink:href="#DejaVuSans-48"/>
       <use x="63.623047" xlink:href="#DejaVuSans-46"/>
       <use x="95.410156" xlink:href="#DejaVuSans-50"/>
      </g>
     </g>
    </g>
    <g id="xtick_3">
     <g id="line2d_4">
      <g>
       <use style="stroke:#000000;stroke-width:0.8;" x="333.741073" xlink:href="#m293888353e" y="704.88"/>
      </g>
     </g>
     <g id="text_3">
      <!-- 0.4 -->
      <defs>
       <path d="M 37.796875 64.3125 
L 12.890625 25.390625 
L 37.796875 25.390625 
z
M 35.203125 72.90625 
L 47.609375 72.90625 
L 47.609375 25.390625 
L 58.015625 25.390625 
L 58.015625 17.1875 
L 47.609375 17.1875 
L 47.609375 0 
L 37.796875 0 
L 37.796875 17.1875 
L 4.890625 17.1875 
L 4.890625 26.703125 
z
" id="DejaVuSans-52"/>
      </defs>
      <g transform="translate(325.789511 719.478438)scale(0.1 -0.1)">
       <use xlink:href="#DejaVuSans-48"/>
       <use x="63.623047" xlink:href="#DejaVuSans-46"/>
       <use x="95.410156" xlink:href="#DejaVuSans-52"/>
      </g>
     </g>
    </g>
    <g id="xtick_4">
     <g id="line2d_5">
      <g>
       <use style="stroke:#000000;stroke-width:0.8;" x="451.11161" xlink:href="#m293888353e" y="704.88"/>
      </g>
     </g>
     <g id="text_4">
      <!-- 0.6 -->
      <defs>
       <path d="M 33.015625 40.375 
Q 26.375 40.375 22.484375 35.828125 
Q 18.609375 31.296875 18.609375 23.390625 
Q 18.609375 15.53125 22.484375 10.953125 
Q 26.375 6.390625 33.015625 6.390625 
Q 39.65625 6.390625 43.53125 10.953125 
Q 47.40625 15.53125 47.40625 23.390625 
Q 47.40625 31.296875 43.53125 35.828125 
Q 39.65625 40.375 33.015625 40.375 
z
M 52.59375 71.296875 
L 52.59375 62.3125 
Q 48.875 64.0625 45.09375 64.984375 
Q 41.3125 65.921875 37.59375 65.921875 
Q 27.828125 65.921875 22.671875 59.328125 
Q 17.53125 52.734375 16.796875 39.40625 
Q 19.671875 43.65625 24.015625 45.921875 
Q 28.375 48.1875 33.59375 48.1875 
Q 44.578125 48.1875 50.953125 41.515625 
Q 57.328125 34.859375 57.328125 23.390625 
Q 57.328125 12.15625 50.6875 5.359375 
Q 44.046875 -1.421875 33.015625 -1.421875 
Q 20.359375 -1.421875 13.671875 8.265625 
Q 6.984375 17.96875 6.984375 36.375 
Q 6.984375 53.65625 15.1875 63.9375 
Q 23.390625 74.21875 37.203125 74.21875 
Q 40.921875 74.21875 44.703125 73.484375 
Q 48.484375 72.75 52.59375 71.296875 
z
" id="DejaVuSans-54"/>
      </defs>
      <g transform="translate(443.160047 719.478438)scale(0.1 -0.1)">
       <use xlink:href="#DejaVuSans-48"/>
       <use x="63.623047" xlink:href="#DejaVuSans-46"/>
       <use x="95.410156" xlink:href="#DejaVuSans-54"/>
      </g>
     </g>
    </g>
    <g id="xtick_5">
     <g id="line2d_6">
      <g>
       <use style="stroke:#000000;stroke-width:0.8;" x="568.482146" xlink:href="#m293888353e" y="704.88"/>
      </g>
     </g>
     <g id="text_5">
      <!-- 0.8 -->
      <defs>
       <path d="M 31.78125 34.625 
Q 24.75 34.625 20.71875 30.859375 
Q 16.703125 27.09375 16.703125 20.515625 
Q 16.703125 13.921875 20.71875 10.15625 
Q 24.75 6.390625 31.78125 6.390625 
Q 38.8125 6.390625 42.859375 10.171875 
Q 46.921875 13.96875 46.921875 20.515625 
Q 46.921875 27.09375 42.890625 30.859375 
Q 38.875 34.625 31.78125 34.625 
z
M 21.921875 38.8125 
Q 15.578125 40.375 12.03125 44.71875 
Q 8.5 49.078125 8.5 55.328125 
Q 8.5 64.0625 14.71875 69.140625 
Q 20.953125 74.21875 31.78125 74.21875 
Q 42.671875 74.21875 48.875 69.140625 
Q 55.078125 64.0625 55.078125 55.328125 
Q 55.078125 49.078125 51.53125 44.71875 
Q 48 40.375 41.703125 38.8125 
Q 48.828125 37.15625 52.796875 32.3125 
Q 56.78125 27.484375 56.78125 20.515625 
Q 56.78125 9.90625 50.3125 4.234375 
Q 43.84375 -1.421875 31.78125 -1.421875 
Q 19.734375 -1.421875 13.25 4.234375 
Q 6.78125 9.90625 6.78125 20.515625 
Q 6.78125 27.484375 10.78125 32.3125 
Q 14.796875 37.15625 21.921875 38.8125 
z
M 18.3125 54.390625 
Q 18.3125 48.734375 21.84375 45.5625 
Q 25.390625 42.390625 31.78125 42.390625 
Q 38.140625 42.390625 41.71875 45.5625 
Q 45.3125 48.734375 45.3125 54.390625 
Q 45.3125 60.0625 41.71875 63.234375 
Q 38.140625 66.40625 31.78125 66.40625 
Q 25.390625 66.40625 21.84375 63.234375 
Q 18.3125 60.0625 18.3125 54.390625 
z
" id="DejaVuSans-56"/>
      </defs>
      <g transform="translate(560.530584 719.478438)scale(0.1 -0.1)">
       <use xlink:href="#DejaVuSans-48"/>
       <use x="63.623047" xlink:href="#DejaVuSans-46"/>
       <use x="95.410156" xlink:href="#DejaVuSans-56"/>
      </g>
     </g>
    </g>
    <g id="xtick_6">
     <g id="line2d_7">
      <g>
       <use style="stroke:#000000;stroke-width:0.8;" x="685.852683" xlink:href="#m293888353e" y="704.88"/>
      </g>
     </g>
     <g id="text_6">
      <!-- 1.0 -->
      <defs>
       <path d="M 12.40625 8.296875 
L 28.515625 8.296875 
L 28.515625 63.921875 
L 10.984375 60.40625 
L 10.984375 69.390625 
L 28.421875 72.90625 
L 38.28125 72.90625 
L 38.28125 8.296875 
L 54.390625 8.296875 
L 54.390625 0 
L 12.40625 0 
z
" id="DejaVuSans-49"/>
      </defs>
      <g transform="translate(677.90112 719.478438)scale(0.1 -0.1)">
       <use xlink:href="#DejaVuSans-49"/>
       <use x="63.623047" xlink:href="#DejaVuSans-46"/>
       <use x="95.410156" xlink:href="#DejaVuSans-48"/>
      </g>
     </g>
    </g>
    <g id="xtick_7">
     <g id="line2d_8">
      <path clip-path="url(#p6d891c66ef)" d="M 182.836098 704.88 
L 182.836098 121.813463 
" style="fill:none;stroke:#b0b0b0;stroke-linecap:square;stroke-opacity:0.3;stroke-width:0.8;"/>
     </g>
     <g id="line2d_9">
      <defs>
       <path d="M 0 0 
L 0 2 
" id="mc90e2de9a2" style="stroke:#000000;stroke-width:0.6;"/>
      </defs>
      <g>
       <use style="stroke:#000000;stroke-width:0.6;" x="182.836098" xlink:href="#mc90e2de9a2" y="704.88"/>
      </g>
     </g>
    </g>
    <g id="xtick_8">
     <g id="line2d_10">
      <path clip-path="url(#p6d891c66ef)" d="M 266.672195 704.88 
L 266.672195 121.813463 
" style="fill:none;stroke:#b0b0b0;stroke-linecap:square;stroke-opacity:0.3;stroke-width:0.8;"/>
     </g>
     <g id="line2d_11">
      <g>
       <use style="stroke:#000000;stroke-width:0.6;" x="266.672195" xlink:href="#mc90e2de9a2" y="704.88"/>
      </g>
     </g>
    </g>
    <g id="xtick_9">
     <g id="line2d_12">
      <path clip-path="url(#p6d891c66ef)" d="M 350.508293 704.88 
L 350.508293 121.813463 
" style="fill:none;stroke:#b0b0b0;stroke-linecap:square;stroke-opacity:0.3;stroke-width:0.8;"/>
     </g>
     <g id="line2d_13">
      <g>
       <use style="stroke:#000000;stroke-width:0.6;" x="350.508293" xlink:href="#mc90e2de9a2" y="704.88"/>
      </g>
     </g>
    </g>
    <g id="xtick_10">
     <g id="line2d_14">
      <path clip-path="url(#p6d891c66ef)" d="M 434.34439 704.88 
L 434.34439 121.813463 
" style="fill:none;stroke:#b0b0b0;stroke-linecap:square;stroke-opacity:0.3;stroke-width:0.8;"/>
     </g>
     <g id="line2d_15">
      <g>
       <use style="stroke:#000000;stroke-width:0.6;" x="434.34439" xlink:href="#mc90e2de9a2" y="704.88"/>
      </g>
     </g>
    </g>
    <g id="xtick_11">
     <g id="line2d_16">
      <path clip-path="url(#p6d891c66ef)" d="M 518.180488 704.88 
L 518.180488 121.813463 
" style="fill:none;stroke:#b0b0b0;stroke-linecap:square;stroke-opacity:0.3;stroke-width:0.8;"/>
     </g>
     <g id="line2d_17">
      <g>
       <use style="stroke:#000000;stroke-width:0.6;" x="518.180488" xlink:href="#mc90e2de9a2" y="704.88"/>
      </g>
     </g>
    </g>
    <g id="xtick_12">
     <g id="line2d_18">
      <path clip-path="url(#p6d891c66ef)" d="M 602.016585 704.88 
L 602.016585 121.813463 
" style="fill:none;stroke:#b0b0b0;stroke-linecap:square;stroke-opacity:0.3;stroke-width:0.8;"/>
     </g>
     <g id="line2d_19">
      <g>
       <use style="stroke:#000000;stroke-width:0.6;" x="602.016585" xlink:href="#mc90e2de9a2" y="704.88"/>
      </g>
     </g>
    </g>
   </g>
   <g id="matplotlib.axis_2">
    <g id="ytick_1">
     <g id="line2d_20">
      <defs>
       <path d="M 0 0 
L -3.5 0 
" id="ma898e3b7f0" style="stroke:#000000;stroke-width:0.8;"/>
      </defs>
      <g>
       <use style="stroke:#000000;stroke-width:0.8;" x="99" xlink:href="#ma898e3b7f0" y="704.88"/>
      </g>
     </g>
     <g id="text_7">
      <!-- 0.0 -->
      <g transform="translate(76.096875 708.679219)scale(0.1 -0.1)">
       <use xlink:href="#DejaVuSans-48"/>
       <use x="63.623047" xlink:href="#DejaVuSans-46"/>
       <use x="95.410156" xlink:href="#DejaVuSans-48"/>
      </g>
     </g>
    </g>
    <g id="ytick_2">
     <g id="line2d_21">
      <g>
       <use style="stroke:#000000;stroke-width:0.8;" x="99" xlink:href="#ma898e3b7f0" y="588.266693"/>
      </g>
     </g>
     <g id="text_8">
      <!-- 0.2 -->
      <g transform="translate(76.096875 592.065911)scale(0.1 -0.1)">
       <use xlink:href="#DejaVuSans-48"/>
       <use x="63.623047" xlink:href="#DejaVuSans-46"/>
       <use x="95.410156" xlink:href="#DejaVuSans-50"/>
      </g>
     </g>
    </g>
    <g id="ytick_3">
     <g id="line2d_22">
      <g>
       <use style="stroke:#000000;stroke-width:0.8;" x="99" xlink:href="#ma898e3b7f0" y="471.653385"/>
      </g>
     </g>
     <g id="text_9">
      <!-- 0.4 -->
      <g transform="translate(76.096875 475.452604)scale(0.1 -0.1)">
       <use xlink:href="#DejaVuSans-48"/>
       <use x="63.623047" xlink:href="#DejaVuSans-46"/>
       <use x="95.410156" xlink:href="#DejaVuSans-52"/>
      </g>
     </g>
    </g>
    <g id="ytick_4">
     <g id="line2d_23">
      <g>
       <use style="stroke:#000000;stroke-width:0.8;" x="99" xlink:href="#ma898e3b7f0" y="355.040078"/>
      </g>
     </g>
     <g id="text_10">
      <!-- 0.6 -->
      <g transform="translate(76.096875 358.839297)scale(0.1 -0.1)">
       <use xlink:href="#DejaVuSans-48"/>
       <use x="63.623047" xlink:href="#DejaVuSans-46"/>
       <use x="95.410156" xlink:href="#DejaVuSans-54"/>
      </g>
     </g>
    </g>
    <g id="ytick_5">
     <g id="line2d_24">
      <g>
       <use style="stroke:#000000;stroke-width:0.8;" x="99" xlink:href="#ma898e3b7f0" y="238.426771"/>
      </g>
     </g>
     <g id="text_11">
      <!-- 0.8 -->
      <g transform="translate(76.096875 242.225989)scale(0.1 -0.1)">
       <use xlink:href="#DejaVuSans-48"/>
       <use x="63.623047" xlink:href="#DejaVuSans-46"/>
       <use x="95.410156" xlink:href="#DejaVuSans-56"/>
      </g>
     </g>
    </g>
    <g id="ytick_6">
     <g id="line2d_25">
      <g>
       <use style="stroke:#000000;stroke-width:0.8;" x="99" xlink:href="#ma898e3b7f0" y="121.813463"/>
      </g>
     </g>
     <g id="text_12">
      <!-- 1.0 -->
      <g transform="translate(76.096875 125.612682)scale(0.1 -0.1)">
       <use xlink:href="#DejaVuSans-49"/>
       <use x="63.623047" xlink:href="#DejaVuSans-46"/>
       <use x="95.410156" xlink:href="#DejaVuSans-48"/>
      </g>
     </g>
    </g>
    <g id="ytick_7">
     <g id="line2d_26">
      <path clip-path="url(#p6d891c66ef)" d="M 99 621.58478 
L 685.852683 621.58478 
" style="fill:none;stroke:#b0b0b0;stroke-linecap:square;stroke-opacity:0.3;stroke-width:0.8;"/>
     </g>
     <g id="line2d_27">
      <defs>
       <path d="M 0 0 
L -2 0 
" id="m62054a7f98" style="stroke:#000000;stroke-width:0.6;"/>
      </defs>
      <g>
       <use style="stroke:#000000;stroke-width:0.6;" x="99" xlink:href="#m62054a7f98" y="621.58478"/>
      </g>
     </g>
    </g>
    <g id="ytick_8">
     <g id="line2d_28">
      <path clip-path="url(#p6d891c66ef)" d="M 99 538.289561 
L 685.852683 538.289561 
" style="fill:none;stroke:#b0b0b0;stroke-linecap:square;stroke-opacity:0.3;stroke-width:0.8;"/>
     </g>
     <g id="line2d_29">
      <g>
       <use style="stroke:#000000;stroke-width:0.6;" x="99" xlink:href="#m62054a7f98" y="538.289561"/>
      </g>
     </g>
    </g>
    <g id="ytick_9">
     <g id="line2d_30">
      <path clip-path="url(#p6d891c66ef)" d="M 99 454.994341 
L 685.852683 454.994341 
" style="fill:none;stroke:#b0b0b0;stroke-linecap:square;stroke-opacity:0.3;stroke-width:0.8;"/>
     </g>
     <g id="line2d_31">
      <g>
       <use style="stroke:#000000;stroke-width:0.6;" x="99" xlink:href="#m62054a7f98" y="454.994341"/>
      </g>
     </g>
    </g>
    <g id="ytick_10">
     <g id="line2d_32">
      <path clip-path="url(#p6d891c66ef)" d="M 99 371.699122 
L 685.852683 371.699122 
" style="fill:none;stroke:#b0b0b0;stroke-linecap:square;stroke-opacity:0.3;stroke-width:0.8;"/>
     </g>
     <g id="line2d_33">
      <g>
       <use style="stroke:#000000;stroke-width:0.6;" x="99" xlink:href="#m62054a7f98" y="371.699122"/>
      </g>
     </g>
    </g>
    <g id="ytick_11">
     <g id="line2d_34">
      <path clip-path="url(#p6d891c66ef)" d="M 99 288.403902 
L 685.852683 288.403902 
" style="fill:none;stroke:#b0b0b0;stroke-linecap:square;stroke-opacity:0.3;stroke-width:0.8;"/>
     </g>
     <g id="line2d_35">
      <g>
       <use style="stroke:#000000;stroke-width:0.6;" x="99" xlink:href="#m62054a7f98" y="288.403902"/>
      </g>
     </g>
    </g>
    <g id="ytick_12">
     <g id="line2d_36">
      <path clip-path="url(#p6d891c66ef)" d="M 99 205.108683 
L 685.852683 205.108683 
" style="fill:none;stroke:#b0b0b0;stroke-linecap:square;stroke-opacity:0.3;stroke-width:0.8;"/>
     </g>
     <g id="line2d_37">
      <g>
       <use style="stroke:#000000;stroke-width:0.6;" x="99" xlink:href="#m62054a7f98" y="205.108683"/>
      </g>
     </g>
    </g>
   </g>
   <g id="patch_3">
    <path d="M 99 704.88 
L 99 121.813463 
" style="fill:none;stroke:#000000;stroke-linecap:square;stroke-linejoin:miter;stroke-width:0.8;"/>
   </g>
   <g id="patch_4">
    <path d="M 685.852683 704.88 
L 685.852683 121.813463 
" style="fill:none;stroke:#000000;stroke-linecap:square;stroke-linejoin:miter;stroke-width:0.8;"/>
   </g>
   <g id="patch_5">
    <path d="M 99 704.88 
L 685.852683 704.88 
" style="fill:none;stroke:#000000;stroke-linecap:square;stroke-linejoin:miter;stroke-width:0.8;"/>
   </g>
   <g id="patch_6">
    <path d="M 99 121.813463 
L 685.852683 121.813463 
" style="fill:none;stroke:#000000;stroke-linecap:square;stroke-linejoin:miter;stroke-width:0.8;"/>
   </g>
  </g>
  <g id="axes_4">
   <g id="LineCollection_2">
    <path clip-path="url(#pc73055e950)" d="M 700.823415 704.88 
L 700.823415 121.813463 
" style="fill:none;stroke:#000000;stroke-width:1.5;"/>
   </g>
   <g id="line2d_38">
    <defs>
     <path d="M 10 0 
L -10 -0 
" id="mac998b8d82" style="stroke:#1f77b4;"/>
    </defs>
    <g clip-path="url(#pc73055e950)">
     <use style="fill:#1f77b4;stroke:#1f77b4;" x="700.823415" xlink:href="#mac998b8d82" y="174.261981"/>
     <use style="fill:#1f77b4;stroke:#1f77b4;" x="700.823415" xlink:href="#mac998b8d82" y="491.371113"/>
     <use style="fill:#1f77b4;stroke:#1f77b4;" x="700.823415" xlink:href="#mac998b8d82" y="486.485939"/>
     <use style="fill:#1f77b4;stroke:#1f77b4;" x="700.823415" xlink:href="#mac998b8d82" y="359.999246"/>
     <use style="fill:#1f77b4;stroke:#1f77b4;" x="700.823415" xlink:href="#mac998b8d82" y="456.386824"/>
     <use style="fill:#1f77b4;stroke:#1f77b4;" x="700.823415" xlink:href="#mac998b8d82" y="528.065829"/>
     <use style="fill:#1f77b4;stroke:#1f77b4;" x="700.823415" xlink:href="#mac998b8d82" y="341.861304"/>
     <use style="fill:#1f77b4;stroke:#1f77b4;" x="700.823415" xlink:href="#mac998b8d82" y="288.099869"/>
     <use style="fill:#1f77b4;stroke:#1f77b4;" x="700.823415" xlink:href="#mac998b8d82" y="663.529835"/>
     <use style="fill:#1f77b4;stroke:#1f77b4;" x="700.823415" xlink:href="#mac998b8d82" y="375.93778"/>
     <use style="fill:#1f77b4;stroke:#1f77b4;" x="700.823415" xlink:href="#mac998b8d82" y="635.900554"/>
     <use style="fill:#1f77b4;stroke:#1f77b4;" x="700.823415" xlink:href="#mac998b8d82" y="148.238928"/>
     <use style="fill:#1f77b4;stroke:#1f77b4;" x="700.823415" xlink:href="#mac998b8d82" y="196.31445"/>
     <use style="fill:#1f77b4;stroke:#1f77b4;" x="700.823415" xlink:href="#mac998b8d82" y="264.89216"/>
     <use style="fill:#1f77b4;stroke:#1f77b4;" x="700.823415" xlink:href="#mac998b8d82" y="608.783665"/>
     <use style="fill:#1f77b4;stroke:#1f77b4;" x="700.823415" xlink:href="#mac998b8d82" y="622.556684"/>
     <use style="fill:#1f77b4;stroke:#1f77b4;" x="700.823415" xlink:href="#mac998b8d82" y="577.772098"/>
     <use style="fill:#1f77b4;stroke:#1f77b4;" x="700.823415" xlink:href="#mac998b8d82" y="125.448503"/>
     <use style="fill:#1f77b4;stroke:#1f77b4;" x="700.823415" xlink:href="#mac998b8d82" y="702.671472"/>
     <use style="fill:#1f77b4;stroke:#1f77b4;" x="700.823415" xlink:href="#mac998b8d82" y="614.853151"/>
     <use style="fill:#1f77b4;stroke:#1f77b4;" x="700.823415" xlink:href="#mac998b8d82" y="134.108165"/>
     <use style="fill:#1f77b4;stroke:#1f77b4;" x="700.823415" xlink:href="#mac998b8d82" y="212.600345"/>
     <use style="fill:#1f77b4;stroke:#1f77b4;" x="700.823415" xlink:href="#mac998b8d82" y="437.567505"/>
     <use style="fill:#1f77b4;stroke:#1f77b4;" x="700.823415" xlink:href="#mac998b8d82" y="504.079155"/>
     <use style="fill:#1f77b4;stroke:#1f77b4;" x="700.823415" xlink:href="#mac998b8d82" y="260.745062"/>
     <use style="fill:#1f77b4;stroke:#1f77b4;" x="700.823415" xlink:href="#mac998b8d82" y="238.767522"/>
     <use style="fill:#1f77b4;stroke:#1f77b4;" x="700.823415" xlink:href="#mac998b8d82" y="349.894083"/>
     <use style="fill:#1f77b4;stroke:#1f77b4;" x="700.823415" xlink:href="#mac998b8d82" y="312.595473"/>
     <use style="fill:#1f77b4;stroke:#1f77b4;" x="700.823415" xlink:href="#mac998b8d82" y="593.218809"/>
     <use style="fill:#1f77b4;stroke:#1f77b4;" x="700.823415" xlink:href="#mac998b8d82" y="164.60201"/>
     <use style="fill:#1f77b4;stroke:#1f77b4;" x="700.823415" xlink:href="#mac998b8d82" y="689.010846"/>
     <use style="fill:#1f77b4;stroke:#1f77b4;" x="700.823415" xlink:href="#mac998b8d82" y="402.80006"/>
     <use style="fill:#1f77b4;stroke:#1f77b4;" x="700.823415" xlink:href="#mac998b8d82" y="332.632171"/>
     <use style="fill:#1f77b4;stroke:#1f77b4;" x="700.823415" xlink:href="#mac998b8d82" y="569.819521"/>
     <use style="fill:#1f77b4;stroke:#1f77b4;" x="700.823415" xlink:href="#mac998b8d82" y="541.600934"/>
     <use style="fill:#1f77b4;stroke:#1f77b4;" x="700.823415" xlink:href="#mac998b8d82" y="517.043817"/>
     <use style="fill:#1f77b4;stroke:#1f77b4;" x="700.823415" xlink:href="#mac998b8d82" y="289.836257"/>
     <use style="fill:#1f77b4;stroke:#1f77b4;" x="700.823415" xlink:href="#mac998b8d82" y="428.960651"/>
     <use style="fill:#1f77b4;stroke:#1f77b4;" x="700.823415" xlink:href="#mac998b8d82" y="561.883035"/>
     <use style="fill:#1f77b4;stroke:#1f77b4;" x="700.823415" xlink:href="#mac998b8d82" y="654.404363"/>
     <use style="fill:#1f77b4;stroke:#1f77b4;" x="700.823415" xlink:href="#mac998b8d82" y="474.532672"/>
     <use style="fill:#1f77b4;stroke:#1f77b4;" x="700.823415" xlink:href="#mac998b8d82" y="449.058272"/>
     <use style="fill:#1f77b4;stroke:#1f77b4;" x="700.823415" xlink:href="#mac998b8d82" y="219.666456"/>
     <use style="fill:#1f77b4;stroke:#1f77b4;" x="700.823415" xlink:href="#mac998b8d82" y="670.561168"/>
     <use style="fill:#1f77b4;stroke:#1f77b4;" x="700.823415" xlink:href="#mac998b8d82" y="409.505187"/>
     <use style="fill:#1f77b4;stroke:#1f77b4;" x="700.823415" xlink:href="#mac998b8d82" y="191.181675"/>
     <use style="fill:#1f77b4;stroke:#1f77b4;" x="700.823415" xlink:href="#mac998b8d82" y="302.613059"/>
     <use style="fill:#1f77b4;stroke:#1f77b4;" x="700.823415" xlink:href="#mac998b8d82" y="251.397142"/>
     <use style="fill:#1f77b4;stroke:#1f77b4;" x="700.823415" xlink:href="#mac998b8d82" y="394.968295"/>
    </g>
   </g>
  </g>
 </g>
 <defs>
  <clipPath id="peb6383a630">
   <rect height="11.899317" width="586.852683" x="99" y="95.04"/>
  </clipPath>
  <clipPath id="p6d891c66ef">
   <rect height="583.066537" width="586.852683" x="99" y="121.813463"/>
  </clipPath>
  <clipPath id="pc73055e950">
   <rect height="583.066537" width="11.976585" x="700.823415" y="121.813463"/>
  </clipPath>
 </defs>
</svg>
